<?xml version="1.0" encoding="UTF-8"?><svg id="_レイヤー_1" xmlns="http://www.w3.org/2000/svg" xmlns:xlink="http://www.w3.org/1999/xlink" viewBox="0 0 540.675 189"><defs><style>.cls-1{fill:url(#_新規グラデーションスウォッチ_3);}.cls-2{fill:url(#_名称未設定グラデーション_5);}.cls-3{fill:url(#_名称未設定グラデーション_6);}.cls-4{fill:#fff;}.cls-5{fill:#dfcdaf;}.cls-6{fill:#c4af85;}.cls-7{fill:url(#_名称未設定グラデーション_7);}.cls-8{fill:#da859b;}</style><linearGradient id="_名称未設定グラデーション_7" x1="70.2782" y1="108.8205" x2="128.2177" y2="84.2266" gradientUnits="userSpaceOnUse"><stop offset="0" stop-color="#da859b"/><stop offset=".4028" stop-color="#d88799"/><stop offset=".6469" stop-color="#d48f95"/><stop offset=".848" stop-color="#cc9e8d"/><stop offset="1" stop-color="#c4af85"/></linearGradient><linearGradient id="_新規グラデーションスウォッチ_3" x1="109.2863" y1="60.6258" x2="110.0137" y2="60.6258" gradientUnits="userSpaceOnUse"><stop offset="0" stop-color="#da859b"/><stop offset=".2614" stop-color="#d39094"/><stop offset="1" stop-color="#c4af85"/></linearGradient><linearGradient id="_名称未設定グラデーション_6" x1="323.4226" y1="111.9446" x2="511.5915" y2="111.9446" gradientUnits="userSpaceOnUse"><stop offset="0" stop-color="#c4af85"/><stop offset=".2701" stop-color="#caa18b"/><stop offset=".6988" stop-color="#da859b"/></linearGradient><linearGradient id="_名称未設定グラデーション_5" x1="132.6773" y1="65.6814" x2="132.6773" y2="98.2757" gradientUnits="userSpaceOnUse"><stop offset="0" stop-color="#da859b"/><stop offset=".3699" stop-color="#d39194"/><stop offset="1" stop-color="#c4af85"/></linearGradient></defs><path class="cls-5" d="M46.6075,109.4207c-21.709,0-38.0801-14.9888-38.0801-34.8652,0-20.7397,17.7031-37.6133,39.4634-37.6133,22.5981,0,33.9399,18.3677,33.9399,28.6499,0,6.5273-4.9634,11.6406-11.2988,11.6406-6.3032,0-11.0566-5.1548-11.0566-11.9907,0-1.9248.3306-3.6226.5957-4.9863.165-.8481.3208-1.6494.3208-2.1357-.2285-.9668-3.5791-3.6543-9.7437-3.6543-11.6396,0-21.4731,10.3599-21.4731,22.6226,0,13.8774,11.2192,15.9492,17.9072,15.9492,7.8833,0,16.0605-2.9536,24.999-9.0303.7607-.5156,1.5029-1.0396,2.2456-1.5884,1.5752-1.1445,3.0537-2.2842,4.4468-3.4258,7.9546-6.4902,15.1235-13.8638,21.4487-20.3691,1.2529-1.2881,2.4595-2.5293,3.6167-3.7061l2.6665-2.6758c3.4878-3.4497,6.7983-6.75,9.937-9.8789,23.3809-23.3091,30.4141-30.0293,36.9844-30.0293,6.0732,0,10.4814,4.3628,10.4814,10.374,0,3.437-1.3677,5.5967-12.0107,22.4058l-.0737.1167c-6.4482,10.187-11.5791,18.376-14.0034,23.2407-.0669.1436-.1357.2871-.2041.4277l-.0698.145c-1.0474,2.1968-3.0952,3.749-5.4937,4.1631-.1685.0293-.3916.062-.5615.0796l-7.7598.7993c-2.7939.2856-5.5176-1.0107-7.0518-3.3662-.7363-1.1289-1.1396-2.4102-1.2065-3.707-1.5522,1.5767-3.1772,3.2622-4.8438,4.9912-7.8872,8.1821-16.8267,17.4556-27.2856,24.7236-.7822.5493-1.6167,1.1084-2.521,1.688-.0859.0605-.1733.1191-.2617.1763-11.3296,7.2866-22.4688,10.8291-34.0537,10.8291Z"/><path class="cls-5" d="M196.4154,100.8054c-3.0723,0-6.5215-1.0674-8.6113-5.0874-2.2031,3.0649-5.8213,5.0874-9.4951,5.0874-2.79,0-5.2471-1.5298-6.5391-3.8247-2.2803,2.3223-5.666,3.8247-8.917,3.8247-4.1421,0-7.5-3.3579-7.5-7.5,0-.1641.0288-.8301.0996-1.998.0562-.9316.1377-2.2793.2354-4.043.2793-5.1689.4214-8.0981.4771-10.583-.042-.0215-.084-.0439-.126-.0664-2.5557-1.3887-4.0781-4.1294-3.9067-7.0327l.0649-1.0986c.1187-2.0054,1.0366-3.8789,2.5479-5.2017,4.2456-3.7148,7.8867-6.1895,11.8584-6.1895,1.9092,0,4.1899.7148,5.9106,2.5142,1.9854-1.3818,4.3652-2.4194,7.168-2.5098,2.7627-.1016,5.2393.9937,7.0254,2.8994,2.4551-1.8599,5.1318-2.9038,7.6387-2.9038,10.7344,0,10.7344,11.7817,10.7344,16.8125,0,2.0469-.0176,3.6313-.0342,5.1816-.0156,1.4365-.0312,2.8428-.0312,4.5835v.4087c1.7197,1.2168,2.8506,3.1021,3.1113,5.1958l.0645.5176c.207,1.6631-.1484,3.3477-1.0107,4.7847-1.8574,3.0952-6.1504,6.2285-10.7646,6.2285ZM201.1039,88.906h.0098-.0098Z"/><path class="cls-5" d="M209.6039,101.259c-2.0732,0-12.415-.8359-12.415-17.3301,0-15.9736,7.9775-26.7065,19.8516-26.7065,1.6904,0,3.2471.2441,4.541.5444.5703-.1904,1.0732-.3257,1.4805-.4351.1553-.042.3096-.0825.4619-.1274,2.4814-.729,5.1582-.1318,7.0908,1.5801,1.9336,1.7124,2.8496,4.2998,2.4248,6.8477-.3555,2.1338-.7383,8.041-.7383,15.9683,0,.603,0,1.2651.0059,1.9014,1.9668,1.2178,3.2803,3.292,3.5137,5.6333l.0645.6475c.1875,1.8828-.3438,3.7666-1.4873,5.2744-2.833,3.7358-6.5898,5.8784-10.3076,5.8784-1.1465,0-4.0098-.2534-6.4766-2.5103-2.2637,1.707-4.9199,2.834-8.0098,2.834ZM228.7318,88.6526h.0098-.0098Z"/><path class="cls-5" d="M253.9642,100.8704c-3.8613,0-7.0664-2.0732-8.7422-5.5308-2.0234,3.2788-5.8818,5.4658-9.8818,5.4658-3.2236,0-6.0869-2.0605-7.1113-5.1177-.5186-1.5474-.5186-3.0566-.5186-4.5161,0-1.7612.0713-4.1392.1338-6.2373l.3262-7.7256c.0117-.2651.0244-.5244.0371-.7773-2.3643-1.438-3.7539-4.0708-3.5879-6.8525l.0654-1.0986c.1133-1.9038.9473-3.6929,2.333-5.0029,3.9521-3.7383,7.0859-6.3848,11.4258-6.3848,2.04,0,4.499.7881,6.2969,2.7896,2.0547-1.5288,4.6387-2.7896,7.7363-2.7896,3.5273,0,7.8369,2.0063,9.3525,7.6362.6191,2.3027.7891,5.1646.8613,9.0352.0654,3.8066.0664,8.3521.0664,9.8809,1.249.8643,2.2188,2.0957,2.7598,3.5444l.1934.5176c.8281,2.2153.5615,4.6914-.7168,6.6802-1.1592,1.8032-5.4004,6.4834-11.0293,6.4834ZM242.722,92.1355h0ZM258.9222,89.325h.0098-.0098Z"/><path class="cls-5" d="M267.5414,101.259c-2.0732,0-12.415-.8359-12.415-17.3301,0-15.9736,7.9775-26.7065,19.8516-26.7065,1.6904,0,3.2471.2441,4.541.5444.5703-.1904,1.0732-.3257,1.4805-.4351.1553-.042.3096-.0825.4619-.1274,2.4814-.729,5.1582-.1318,7.0908,1.5801,1.9336,1.7124,2.8496,4.2998,2.4248,6.8477-.3555,2.1338-.7383,8.041-.7383,15.9683,0,.603,0,1.2651.0059,1.9014,1.9668,1.2178,3.2803,3.292,3.5137,5.6333l.0645.6475c.1875,1.8828-.3438,3.7666-1.4873,5.2744-2.833,3.7358-6.5898,5.8784-10.3086,5.8784-1.1465,0-4.0098-.2529-6.4756-2.5103-2.2646,1.707-4.9199,2.834-8.0098,2.834ZM286.6703,88.6541h.0098-.0098Z"/><path class="cls-5" d="M420.337,101.1568c-12.0752,0-16.3604-10.9385-16.3604-20.3052,0-13.2495,9.7422-24.4429,21.2744-24.4429,8.8301,0,11.9629,5.8867,11.9629,10.9272,0,6.3755-5.1367,10.6753-6.8242,12.0884-.0322.0269-.0645.0532-.0967.0791-.2402.1943-.4834.3862-.7295.5747.752-.0171,1.5156.083,2.2598.3018,2.4502.7183,4.3662,2.6333,5.0859,5.0825l.3232,1.1001c.7227,2.4575.1406,5.1138-1.5439,7.0444-5.4424,6.2397-11.3525,7.5498-15.3516,7.5498Z"/><path class="cls-5" d="M442.9571,100.5094c-7.7422,0-9.5957-7.0371-9.9795-9.1934-.5312-2.9888-.625-7.2778-.625-15.1846v-.5601c-1.6221-.1685-3.1797-.8643-4.4082-2.0391-2.1719-2.0767-2.8945-5.248-1.8369-8.0605.8672-2.3076,2.1543-4.1255,4.3037-6.0786.5244-.4771,1.1123-.875,1.7451-1.1851-.0342-.8804-.085-1.7129-.1602-2.5449-.1211-1.3291.1152-2.6665.6836-3.8745,1.5654-3.3237,5.8857-6.7622,10.4062-6.7622,4.2383,0,7.7002,3.4717,7.8203,7.7856.0615,1.5098.1045,2.8784.1328,4.1558.3389-.042.5557-.0859.6914-.1211,2.7002-.7075,5.5742.147,7.4512,2.2168,1.877,2.0693,2.4482,5.0103,1.4824,7.6313-1.5508,4.2114-4.9346,7.0742-9.3604,8.0723l.0117,1.1787c.0264,2.5732.0488,4.7495.1133,6.5444.1963.0986.3887.2061.5781.3228,2.2119,1.3662,3.5586,3.7808,3.5586,6.3809v.7764c0,1.3794-.3809,2.7319-1.0996,3.9092-2.0156,3.2998-6.3555,6.6299-11.5088,6.6299ZM435.9102,53.0553v.001-.001ZM435.9102,53.044v.0078-.0078Z"/><path class="cls-5" d="M476.3888,100.5743c-3.7705,0-6.915-1.9771-8.6221-5.29-.7773,1.2529-2.0244,2.7241-4.207,3.8887-.1396.0747-.2822.145-.4268.2109-1.6426.7466-3.2744,1.1255-4.8506,1.1255h-.2588c-3.7119,0-6.8652-2.7148-7.416-6.3853-.1777-1.1821-.3428-3.3887-.3428-11.4614.0732-13.8687.25-21.4185.3906-25.5967-.0566-.0278-.1133-.0566-.1699-.0859-2.4805-1.2915-4.0361-3.8555-4.0361-6.6519v-1.0996c0-1.9883.79-3.895,2.1953-5.3013.6631-.6636,2.0908-1.9966,3.3428-2.8931,2.3701-1.7715,5.2051-3.6382,8.8818-3.6382,3.1338,0,7.2617,1.8877,8.5801,7.2065.4209,1.6963.6006,3.834.6006,7.1484,0,.8218-.0703,2.4805-.2051,5.5864-.0098.208-.0186.4204-.0283.6377,1.502-.7109,3.1982-1.1787,5.085-1.1787,3.5273,0,7.8359,2.0063,9.3525,7.6357.6191,2.3022.7891,5.1636.8623,9.0347.0654,3.8071.0664,8.3545.0664,9.8828,1.2471.8628,2.2158,2.0928,2.7568,3.5391l.1934.5166c.8291,2.2134.5654,4.6875-.71,6.6768-1.1572,1.8057-5.3965,6.4922-11.0342,6.4922ZM481.3468,89.0289h.0098-.0098ZM450.8224,51.671h0Z"/><path class="cls-5" d="M491.13,100.7042c-4.5713,0-10.0215-2.3672-10.0215-13.644,0-.9404.04-2.6528.0889-4.7461.042-1.7622.0898-3.7627.124-5.7788-.1064-.0488-.2109-.1006-.3154-.1548-2.4805-1.2915-4.0361-3.8555-4.0361-6.6519v-1.0996c0-1.8848.71-3.7007,1.9883-5.0859.7676-.832,1.5938-1.5464,2.2861-2.1094-.3574-.7065-.665-1.4824-.9434-2.3555-.5664-1.772-.4541-3.6914.3154-5.3857,1.3467-2.9639,3.625-5.2646,6.7705-6.8384,1.6787-.8403,3.6133-1.02,5.4189-.5034,3.7021,1.0596,6.3018,3.8442,7.7275,8.2773.3291,1.0244.4346,2.1074.3086,3.1758-.1729,1.458-.6406,2.8047-1.3994,4.0352.7725,1.7104,1.2568,3.981,1.2568,6.9849,0,2.1328-.1357,5.8735-.2656,9.4912-.0693,1.915-.1406,3.8794-.1709,5.1299,1.8711,1.2725,3.085,3.3374,3.2598,5.6289l.0645.8413c.1631,2.127-.5879,4.2231-2.0635,5.7632-1.4424,1.5039-4.8193,5.0259-10.3936,5.0259ZM496.2257,89.4107h.0098-.0098ZM486.8985,53.6354c-.3779.4976-.8242,1.3159-.9531,2.4087l2.293.271-1.3398-2.6797ZM494.1583,53.942l-.5723.8896.9688-.3096c-.1064-.1924-.248-.3984-.3965-.5801ZM487.3819,53.1251h0Z"/><path class="cls-5" d="M505.6788,100.962c-2.0732,0-12.415-.8354-12.415-17.3291,0-15.9736,7.9775-26.7065,19.8516-26.7065,1.6914,0,3.2471.2437,4.541.5444.5713-.1904,1.0742-.3262,1.4814-.4355.1562-.042.3105-.0825.4629-.1274,2.4795-.7285,5.1562-.1313,7.0898,1.5811,1.9326,1.7129,2.8486,4.2998,2.4238,6.8472-.3564,2.1367-.7393,8.0449-.7393,15.9683,0,.603,0,1.2646.0059,1.9009,1.9668,1.2178,3.2812,3.292,3.5146,5.6338l.0645.6475c.1875,1.8833-.3447,3.7686-1.4883,5.2764-2.834,3.7344-6.5908,5.8765-10.3076,5.8765-1.1465,0-4.0107-.2534-6.4766-2.5107-2.2637,1.7065-4.9189,2.8335-8.0088,2.8335ZM524.8077,88.358h.0098-.0098Z"/><path class="cls-5" d="M311.6289,107.4114c-14.085,0-17.042-6.5796-17.042-12.0986,0-5.9443,5.4756-10.2593,13.0186-10.2593,3.6699,0,8.5938,1.1924,12.9385,2.2446,1.3105.3174,3.0195.731,3.9492.9097,2.1621-.5908,8.1455-3.2134,12.7695-7.27,1.7861-1.6025,5.2197-6.3296,8.2871-11.4419,1.5869-2.6445,3.0068-5.2363,4.3906-7.8628-5.5645-5.7695-8.5635-13.2876-8.5635-21.7324,0-16.583,13.5957-29.5732,30.9521-29.5732,8.8457,0,12.1416,3.0063,13.124,6.2461,5.5654-2.7852,10.7344-3.7163,15.1562-3.7163,13.9102,0,24.3994,9.9458,24.3994,23.1343,0,22.5723-23.1973,37.7358-44.8623,37.7358-5.4922,0-10.5586-.8047-15.1436-2.3984-10.9561,18.4912-22.2812,28.9146-35.2715,32.5493l-1.1377.5303c-.042.0195-.083.0386-.125.0571-2.2109.9824-11.0439,2.9458-16.8398,2.9458ZM373.0556,56.4792c2.0986.5664,4.4697.8682,6.9756.8682,14.2656,0,24.2295-8.7817,24.2295-21.356,0-6.2949-1.8789-6.2949-3.5361-6.2949-6.4473,0-13.002,4.4644-19.4805,13.2695-2.6553,3.5645-5.292,8.0591-8.1885,13.5132ZM372.0322,26.7458c-5.752.519-10.0791,6.1602-10.5547,13.7168,3.5146-5.5771,7.0566-10.0874,10.5547-13.7168Z"/><path class="cls-5" d="M123.4396,39.9045c-.9463,0-1.8843-.1792-2.7642-.5283-1.6641-.6597-3.9307-2.1914-5.2808-5.7437-.6289-1.6475-.9492-3.4175-.9492-5.252,0-4.1685,1.4683-8.2495,4.3628-12.1294,2.52-3.377,5.7979-6.2402,9.7427-8.5107,1.1377-.6548,2.4277-.9995,3.7407-.9995,3.5464,0,6.5605,2.1362,7.6792,5.4419.4346,1.3213,1.1094,4.6216-1.5884,8.0015-.5352.6709-1.1821,1.2446-1.9116,1.6968-.7051.437-1.2607.9648-1.6992,1.6143-.0103.0146-.02.0298-.0293.0439,1.2427,2.0439,1.7769,4.937.2671,8.1797-.6099,1.3013-1.4556,2.5312-2.522,3.6743-.9604,1.0283-2.0352,1.9287-3.1982,2.6797-1.8755,1.2139-3.8457,1.8315-5.8496,1.8315Z"/><path class="cls-5" d="M160.0406,46.1433c-2.6611,0-4.5029-.9604-5.6455-1.8638-.7432-.5879-1.3682-1.3115-1.8418-2.1318-1.0015-1.7339-1.4517-3.7471-1.3389-5.9839h0c.0688-1.3823.311-2.7632.7202-4.104.4595-1.5005,1.1006-2.8457,1.9082-4.0054,2.063-2.9443,4.8242-3.9453,7.2314-3.8779.0078-.0161.0161-.0327.0244-.0498.3418-.7017.5215-1.4468.5469-2.2734.0264-.8599.2002-1.7085.5142-2.5088,1.5762-4.0176,4.7646-5.0864,6.0625-5.3594,3.4854-.7026,6.8447.8379,8.6211,3.9087.6592,1.1382,1.0068,2.4297,1.0088,3.7446.0068,4.5522-.834,8.8232-2.5,12.6943-1.9121,4.4453-4.7119,7.7568-8.3218,9.8418-1.5918.9185-3.2842,1.5254-5.0337,1.8057-.6958.1128-1.3477.1631-1.9561.1631Z"/><path class="cls-5" d="M76.7897,131.3074c-1.3394,0-2.6899-.3579-3.9019-1.0972l-.2065-.126c-3.1392-1.9146-4.4272-5.8223-3.042-9.2285.1714-.4214.3462-.8389.5195-1.2529.4932-1.1772.9585-2.2891,1.1895-3.1782.7158-2.7549.6284-5.9253.4443-8.6714-.1904-2.2656-.709-4.6431-1.2573-7.1587-.5103-2.3389-1.0381-4.7578-1.3706-7.3604-.0049-.04-.0098-.0796-.0142-.1196-.1089-.8501-.1865-1.6426-.2368-2.4189-.1729-2.6553,1.0747-5.2031,3.2778-6.6958.7505-.5083,1.4927-1.0322,2.2354-1.5811,2.1533-1.5928,4.9927-1.915,7.4492-.8472s4.1567,3.3652,4.4604,6.0264c.0703.6123.147,1.2246.2402,1.8291.2007,1.3481.4609,2.7622.7998,4.3564.1543.6758,1.4614,6.4199,1.8872,8.9634.0186.1084.0342.2168.0474.3252.8906,7.2544.1138,13.6255-2.3091,18.9355-1.3662,2.9028-3.1499,5.1152-4.5557,6.728-1.4683,1.6846-3.5488,2.5718-5.6567,2.5718ZM120.3551,79.7395c-1.0601,0-2.1362-.2256-3.1602-.7021-3.7188-1.731-5.3569-6.1284-3.6772-9.8706.5308-1.1821,1.0884-2.3379,1.6572-3.4346,1.8872-3.6396,6.3477-5.0874,10.0137-3.2544,3.666,1.8345,5.1802,6.2729,3.3989,9.9653l-1.4727,3.0532c-1.291,2.6772-3.9683,4.2432-6.7598,4.2432Z"/><path class="cls-5" d="M127.5445,109.4207c-11.5391,0-18.9956-8.2251-18.9956-20.9536,0-6.7856,2.6616-14.1543,4.894-19.1406.0186-.0415.0376-.0825.0566-.1235l1.5781-3.2764c.0156-.0332.0322-.0664.0488-.0991l.189-.3774c.9814-1.9609,2.7725-3.394,4.9009-3.9219,2.2373-.5547,4.4771-.7817,6.8481-1.022.6001-.061,1.2227-.124,1.8691-.1948,3.8188-.4199,7.3384,2.1138,8.1509,5.8696.4033,1.8672.0732,3.7354-.8096,5.2896-4.5244,9.5767-6.7529,16.292-6.9619,20.9956.1128-.0703.23-.1499.3511-.2388,1.2227-.897,2.6885-1.4023,4.2046-1.4492.3823-.0117.7568-.041,1.146-.0898.3594-.0459.7437-.1235,1.1475-.2339,3.3848-.9209,6.959.627,8.6001,3.729,1.6416,3.1021.9121,6.9272-1.7554,9.208-4.6138,3.9443-9.9604,6.0293-15.4624,6.0293Z"/><path class="cls-5" d="M110.0108,68.575c-1.4893,0-2.9873-.4419-4.2871-1.3486l-.2065-.144c-.8613-.6006-1.5874-1.3755-2.1299-2.2744-2.5298-3.2202-2.0083-7.8848,1.186-10.4653,3.2192-2.6006,7.9355-2.1021,10.5415,1.1143l.7275.8984c2.3511,2.9033,2.2065,7.0947-.3389,9.8296-1.4658,1.5747-3.4707,2.3901-5.4927,2.3901ZM103.444,64.8792c.001.001.002.0024.0024.0034-.0005-.001-.0015-.0024-.0024-.0034Z"/><path class="cls-5" d="M387.4629,143.7952c-4.9404,0-10.1045-.7471-15.0107-3.2188-.0557-.0283-.1113-.0571-.166-.0869-8.1826-4.3828-12.458-12.1216-12.1953-21.4966-5.2373-1.2202-11.5781-3.2476-17.3691-5.8584-1.5234-.6885-3.0205-1.4004-4.5127-2.1104-3.8174-1.8169-7.4238-3.5332-11.0938-4.6421-.8887-.2534-1.7725-.5254-2.6514-.7964-.999-.3081-1.9912-.6157-2.9785-.8799-3.7705-1.0083-6.1367-4.7397-5.4424-8.5801l.1885-1.042c.7197-3.9775,4.4688-6.6636,8.4619-6.0864.8691.127,1.7314.2422,2.5898.3574,2.2363.2993,4.5498.6094,6.9385,1.1011.083.0171.166.0356.249.0557,3.8115.9209,7.5547,1.8945,11.1748,2.8364,4.792,1.2466,9.7471,2.5352,14.8877,3.7075,3.0742.6338,4.9473.9761,6.5723,1.21,4.9863-8.02,11.6406-13.8267,19.0674-16.5562.0508-.0186.1025-.0371.1543-.0547,7.6201-2.6113,13.3223-1.9116,16.9541,2.0806,3.6582,4.0229,3.7998,9.8477.4199,17.3125-.0137.0303-.0273.0605-.042.0908-4.6211,9.856-14.6973,16.7817-26.5957,18.6602.0166,1.0269.2148,1.8823.5977,2.5259,1.1074,1.8618,4.2988,2.7373,6.166,3.1001,6.416,1.0288,13.5391-.4346,20.2832-2.0249,10.8271-2.6572,21.7412-6.5527,32.2959-10.3198,8.0215-2.8628,16.3154-5.8232,24.7256-8.3076.041-.0122.082-.0239.124-.0356,12.5078-3.4629,22.8428-4.874,32.5488-4.4399,10.8428.376,19.0605,4.8394,23.0635,12.5645,1.998,3.8315,2.6553,7.9443,1.9551,12.2241-.5938,3.6265-3.7266,6.2886-7.4014,6.2886h-3.3223c-2.2246,0-4.335-.9883-5.7598-2.6973-1.4248-1.7085-2.0176-3.9619-1.6182-6.1509.0908-.4961.0605-.8516-.1162-1.2622-.6396-1.083-2.0537-2.0723-3.5811-2.4961-8.5752-2.1787-18.7705-1.4854-31.1689,2.123-8.501,2.4727-16.7285,5.6128-25.4385,8.9375-14.2568,5.4414-28.998,11.0679-44.8262,13.418-.0791.0117-.1592.0225-.2383.0312-2.5078.2905-5.165.5181-7.8896.5181Z"/><path class="cls-5" d="M440.7334,173.2649c-2.4814,0-4.8525-1.2354-6.2617-3.373l-.8369-1.27c-1.5176-2.3037-1.6484-5.2549-.3398-7.6836,1.1768-2.1851,3.3477-3.6299,5.7803-3.8979.2119-.0391.4492-.0752.7109-.1021.9551-.2666,1.9199-.5332,2.8916-.8008,4.2549-1.1733,8.6553-2.3872,12.6201-3.7764,13.9365-4.9785,28.4512-10.6782,38.9023-20.54l.0684-.0742c2.3711-2.583,5.9561-6.4863,6.4521-9.2158.6494-3.5654,3.7549-6.1572,7.3789-6.1572h3.3223c2.1963,0,4.2812.9629,5.7061,2.6338,1.4258,1.6709,2.0469,3.8823,1.6992,6.0508-1.2451,7.7876-6.6289,14.1934-11.7314,19.4326-.0557.0562-.1113.1123-.168.167-5.8184,5.6074-12.9863,10.3242-22.5605,14.8447-9.9297,4.6211-23.9971,9.1729-41.8477,13.5464-.5938.1455-1.1934.2158-1.7861.2158Z"/><path class="cls-5" d="M443.7402,182.259c-4.0166,0-7.8193-1.6499-10.3857-2.7632-1.4463-.6279-2.9424-1.2769-3.9102-1.4775-2.4277-.5054-4.2197-.7349-5.2959-.8384-3.0664-.2954-5.6416-2.4365-6.4902-5.3984-.8496-2.9619.1992-6.1421,2.6445-8.0176.8564-.6572,2.2549-1.8013,4.0459-3.5156.7158-.6846,1.6406-2.0273,2.5352-3.3262,2.832-4.1133,8.0977-11.7725,17.458-9.3198l.0117.0029c5.5664,1.4678,9.2988,7.1714,8.499,12.9849-.0547.3979-.1289.7856-.2197,1.1646.2764.2715.543.5596.7998.8662,3.7617,4.5127,3.6172,11.3276-.3252,15.521-2.9229,3.0981-6.2109,4.1172-9.3672,4.1172Z"/><path class="cls-5" d="M112.9488,66.5388c-2.6016,0-5.1304-1.3555-6.5156-3.7749l-.9009-1.5737c-2.0576-3.5947-.812-8.1772,2.7827-10.2349,3.5928-2.0576,8.1768-.8115,10.2349,2.7827l.9009,1.5737c2.0576,3.5947.812,8.1772-2.7827,10.2349-1.1753.6724-2.4561.9922-3.7192.9922Z"/><path class="cls-5" d="M121.8273,76.6863c-1.0806,0-2.1777-.2344-3.2183-.73-3.7397-1.7803-5.3281-6.2554-3.5479-9.9951l.1797-.3774c1.7808-3.7393,6.2568-5.3286,9.9951-3.5479,3.7397,1.7803,5.3281,6.2554,3.5479,9.9951l-.1797.3774c-1.2852,2.6992-3.9736,4.2778-6.7769,4.2778Z"/><path class="cls-5" d="M129.7203,75.2756c-1.248,0-2.5132-.312-3.6777-.9688-3.6079-2.0352-4.8828-6.6094-2.8477-10.2168l1.4316-2.5381c2.0347-3.6069,6.6094-4.8813,10.2168-2.8477,3.6079,2.0352,4.8828,6.6094,2.8477,10.2168l-1.4316,2.5381c-1.3779,2.4429-3.9209,3.8164-6.5391,3.8164Z"/><path class="cls-5" d="M128.9947,76.825c-1.001,0-2.0176-.2012-2.9937-.627-3.7969-1.6553-5.5327-6.0752-3.877-9.8721.8701-1.9961,1.772-3.6978,2.7563-5.2012,2.269-3.4663,6.917-4.4351,10.3828-2.166,3.4653,2.269,4.4351,6.9175,2.166,10.3828-.5103.7788-1.0337,1.7812-1.5562,2.9795-1.2295,2.8208-3.9858,4.5039-6.8784,4.5039Z"/><path class="cls-5" d="M134.0987,105.7756c-3.1938,0-6.0488-2.0283-7.0913-5.0649-1.0679-3.1108.0156-6.5547,2.6724-8.4932,2.688-1.9619,4.959-6.8374,4.959-10.6465,0-6.0293-1.5156-6.103-3.4346-6.1963-1.4487-.0522-6.1514.1353-9.7632,1.6035-2.7983,1.1382-6.0088.4854-8.1406-1.6587-2.1313-2.1426-2.7686-5.355-1.6162-8.1489l.9521-2.3081c.792-1.9204,2.3452-3.4258,4.2891-4.1582,7.084-2.6689,14.0786-2.583,16.085-2.4878,12.3027.4155,21.2266,9.4102,21.2266,21.4058,0,8.6582-4.418,17.9966-11.2544,23.791-.8369.7095-1.8193,1.2266-2.8779,1.5151-1.0835.2949-2.1343.5054-3.2129.6431-.8657.1079-1.7192.1743-2.5591.2002-.0781.0024-.1562.0039-.2339.0039Z"/><path class="cls-5" d="M103.0533,95.3938c-5.3384,0-9.6821-4.2393-9.6821-9.4492,0-5.1177,3.7212-10.9819,11.0674-17.4551,0-.1982-.0063-.417-.019-.6616-.0552-.9282-.5723-3.0142-1.5215-3.6782-.6323-.4424-2.3159-.6143-5.1421.23-2.1992.6577-4.5117,2.1782-6.3447,4.1714-1.4844,1.6138-3.6074,2.4951-5.792,2.418-2.1909-.0791-4.2378-1.1133-5.6016-2.8306l-1.0059-1.2666c-2.3066-2.9048-2.1436-7.0591.3838-9.7744,1.6904-1.8159,3.5444-3.458,5.5112-4.8809.0791-.0576.1597-.1138.2417-.168,8.146-5.4214,16.2197-6.9971,23.9966-4.6807,6.4248,1.9233,10.9561,6.8594,12.3418,13.104,1.292.3413,2.4951,1.0283,3.4653,2.0283,2.0806,2.1445,2.6899,5.3198,1.5503,8.082l-.9521,2.3081c-.7671,1.8599-2.249,3.333-4.1128,4.0894-1.4746.5986-2.5562,1.3291-3.1279,2.1128-.4092.5615-.9326,1.9111-1.394,3.1016-.6133,1.5815-1.3081,3.3745-2.3354,5.1274-3.0796,5.3408-6.9668,8.0723-11.5269,8.0723Z"/><path class="cls-5" d="M76.3971,97.7092c-1.2041,0-2.4111-.2896-3.5137-.8745-2.2798-1.2095-3.7656-3.4971-3.9629-6.0435-1.4053-12.6973,2.4019-24.9639,10.4575-33.6763,1.4863-1.6079,3.6055-2.4917,5.7881-2.4033,2.188.0825,4.2305,1.1162,5.5918,2.8306l1.0059,1.2666c2.2974,2.8931,2.146,7.0283-.3569,9.7456-2.6509,2.877-4.4932,6.8789-5.0552,10.9795l-.0073.0542c-.3467,2.3975-.3486,5.0181-.0073,8.0112.3037,2.6631-.8374,5.2861-2.9932,6.8799-.8862.6553-1.8081,1.3081-2.7402,1.9395-1.2646.8564-2.7334,1.2905-4.2065,1.2905Z"/><path class="cls-4" d="M46.6075,107.0203c-20.3408,0-35.6797-13.9565-35.6797-32.4648,0-19.4165,16.6265-35.2129,37.063-35.2129,21,0,31.5396,16.8286,31.5396,26.2495,0,5.1816-3.9087,9.2402-8.8984,9.2402-5.0161,0-8.6562-4.0332-8.6562-9.5903,0-1.6938.293-3.1997.5513-4.5283.1958-1.0063.3652-1.876.3652-2.5938,0-2.4688-4.731-6.0547-12.144-6.0547-12.9404,0-23.8735,11.4595-23.8735,25.0229,0,11.4897,7.5918,18.3496,20.3076,18.3496,8.3799,0,16.9985-3.0898,26.3481-9.4463.7847-.5312,1.5537-1.0747,2.3232-1.6431,1.5962-1.1597,3.1123-2.3281,4.5415-3.499,8.0571-6.5747,15.2778-14.001,21.6479-20.5527,1.2495-1.2847,2.4526-2.5225,3.6069-3.6963l2.6528-2.6611c3.4805-3.4429,6.793-6.7456,9.9341-9.877,22.3496-22.2803,29.6865-29.3281,35.29-29.3281,4.7583,0,8.0811,3.2788,8.0811,7.9736,0,2.6396-1.3179,4.8232-11.6382,21.1221l-.0737.1162c-6.7144,10.6089-11.6655,18.5127-14.1382,23.4844-.0654.1411-.1333.2822-.2007.4209l-.0771.1597c-.7119,1.4941-2.1045,2.5493-3.7354,2.8311-.1147.02-.2837.0449-.3994.0566l-7.7598.7998c-1.9014.1953-3.752-.688-4.7954-2.2891-1.043-1.6011-1.1035-3.6514-.1567-5.311,1.6074-2.8179,3.625-6.0366,6.1768-9.8374-2.916,2.9375-5.6338,5.7007-8.2271,8.3457-.0117.0122-.0239.0239-.0356.0361l-2.5327,2.5322c-1.6123,1.6348-3.2905,3.376-5.0132,5.1631-7.8101,8.1021-16.6626,17.2852-26.9272,24.4185-.7769.5454-1.6001,1.0967-2.4946,1.6689-.0708.0513-.1431.1001-.2168.1479-10.9307,7.0298-21.645,10.4468-32.7554,10.4468Z"/><path class="cls-4" d="M196.4154,98.405c-8.1387,0-8.1387-9.5332-8.1387-12.666v-2.7759c-.2178.7515-.4092,1.5308-.5645,2.3291-.2451,1.1772-.3037,2.8804-.3604,5.166-.0137.5464-.1152,1.0869-.3008,1.6011-1.3027,3.6177-5.0605,6.3457-8.7422,6.3457-2.6445,0-4.8506-2.0215-5.0801-4.6558-.1455-1.6626-.2139-2.8164-.2139-6.1992,0-1.1401.0146-2.2622.0371-3.3511-.1445.5776-.2871,1.1919-.4307,1.8496-.1855.8042-.3164,2.144-.4316,3.3257-.0859.8828-.1719,1.7451-.2754,2.4946-.0967.6953-.335,1.3638-.7012,1.9629-1.6465,2.6929-5.0845,4.5732-8.3604,4.5732-2.8164,0-5.0996-2.2832-5.0996-5.0996,0-.1519.0293-.77.0947-1.8535.0562-.9341.1377-2.2856.2363-4.0547.3462-6.4121.4829-9.4077.5054-12.3774-.4834-.0996-.957-.2705-1.4048-.5137-1.7383-.9443-2.7734-2.8081-2.6567-4.7822l.0649-1.0986c.0806-1.3638.7046-2.6377,1.7324-3.5371,4.6011-4.0269,7.4829-5.5952,10.2778-5.5952,2.9976,0,4.5459,1.6714,5.3452,3.6631,2.0176-1.8774,4.625-3.5576,7.8115-3.6606.0547-.002.1104-.0024.165-.0024,3.4014,0,5.2852,1.7651,6.3281,4.0977,2.5283-2.5908,5.46-4.0977,8.0928-4.0977,8.334,0,8.334,9.0215,8.334,14.4121,0,2.0366-.0166,3.6128-.0342,5.1553-.0156,1.4448-.0312,2.8589-.0312,4.6099,0,.3999,0,1.1133.0166,1.8179.3252.1343.6387.3032.9346.5059,1.2051.8252,1.998,2.1279,2.1787,3.5771l.0645.5176c.1406,1.1309-.1006,2.2764-.6875,3.2539-1.4717,2.4541-5.0234,5.0625-8.7061,5.0625Z"/><path class="cls-4" d="M209.6039,98.8586c-2.3496,0-10.0146-1.0762-10.0146-14.9297,0-14.5386,7.0127-24.3062,17.4512-24.3062,1.7891,0,3.3984.3066,4.6699.647.7578-.293,1.4355-.4756,1.9746-.6206.1738-.0469.3467-.0928.5166-.1426,1.6836-.4971,3.5068-.0898,4.8213,1.0742,1.3154,1.1646,1.9385,2.9243,1.6494,4.6567-.4609,2.7671-.7715,9.3428-.7715,16.3628,0,1.1548,0,2.418.0361,3.4282.1592.0518.3164.1113.4717.1797,1.6855.7402,2.8418,2.332,3.0244,4.1641l.0645.6475c.127,1.2803-.2344,2.5615-1.0117,3.5869-2.375,3.1323-5.4355,4.9282-8.3955,4.9282-2.7383,0-4.8086-1.1836-6.2002-3.5337-2.3232,2.3232-5.0518,3.8574-8.2861,3.8574ZM215.5628,72.408c-.1455.2559-.3242.6279-.5137,1.1553-.6416,1.6963-.958,3.6865-.9893,6.1387.8545-2.042,1.5029-4.3345,1.5029-6.1206v-1.1733Z"/><path class="cls-4" d="M253.9642,98.47c-7.5391,0-7.7598-8.1924-7.8779-12.5938-.0312-.7783-.0488-2.105-.0645-3.6719-.4795,1.2891-.8447,2.5176-1.1094,3.7227-.4121,2.0674-.7051,4.5029-.8096,5.6011-.0498.5142-.1768,1.0186-.377,1.4946-1.3145,3.1187-4.8408,5.3823-8.3857,5.3823-2.1924,0-4.1396-1.4009-4.8359-3.4795-.3936-1.1763-.3936-2.4282-.3936-3.7539,0-1.7256.0703-4.0845.1318-6.166l.3252-7.6953c.0381-.8579.082-1.6514.124-2.3857-.3506-.1011-.6934-.2407-1.0215-.4194-1.7383-.9448-2.7725-2.8091-2.6553-4.7837l.0654-1.0986c.0771-1.2944.6445-2.5107,1.5869-3.4019,3.6582-3.4604,6.3154-5.728,9.7764-5.728,3.2383,0,4.8682,1.8169,5.6895,4.0806,1.9756-1.9346,4.8135-4.0806,8.3438-4.0806,7.5459,0,7.7012,8.2744,7.8145,14.3164.0654,3.8027.0654,8.3623.0654,9.8608.0068.5352.0146,1.001.0254,1.4072,1.335.5327,2.3838,1.6045,2.8867,2.9517l.1934.5176c.5625,1.5063.3818,3.1899-.4873,4.5425-.8975,1.396-4.4795,5.3809-9.0107,5.3809ZM240.3304,92.3323h0ZM230.8695,70.3635h0Z"/><path class="cls-4" d="M267.5414,98.8586c-2.3496,0-10.0146-1.0762-10.0146-14.9297,0-14.5386,7.0127-24.3062,17.4512-24.3062,1.7891,0,3.3984.3066,4.6699.647.7578-.293,1.4355-.4756,1.9746-.6206.1738-.0469.3467-.0928.5166-.1426,1.6836-.4971,3.5078-.0898,4.8213,1.0742,1.3154,1.1646,1.9385,2.9243,1.6494,4.6567-.4609,2.7671-.7715,9.3428-.7715,16.3628,0,1.1553,0,2.4189.0371,3.4282.1582.0518.3135.1108.4678.1787,1.6875.7397,2.8447,2.332,3.0273,4.165l.0645.6475c.127,1.2803-.2344,2.5615-1.0117,3.5869-2.375,3.1323-5.4355,4.9282-8.3965,4.9282-2.7373,0-4.8076-1.1836-6.1992-3.5347-2.3232,2.3237-5.0518,3.8584-8.2861,3.8584ZM273.5003,72.408c-.1455.2559-.3242.6279-.5137,1.1553-.6416,1.6963-.958,3.6865-.9893,6.1396.8545-2.042,1.5029-4.3354,1.5029-6.1216v-1.1733Z"/><path class="cls-4" d="M420.337,98.7564c-6.749,0-13.96-4.7036-13.96-17.9048,0-11.9482,8.6436-22.0425,18.874-22.0425,7.0508,0,9.5625,4.4048,9.5625,8.5269,0,3.5356-1.9512,6.8882-5.9648,10.248-2.3018,1.8638-4.8672,3.4419-7.8037,4.8008.1787,1.2671.5938,2.6797,1.5547,2.6797,1.4785,0,2.748-.4507,3.7715-1.3398,1.3125-1.1377,3.1123-1.5312,4.7773-1.042,1.666.4883,2.9688,1.7905,3.458,3.4565l.3232,1.1001c.4912,1.6709.0957,3.4771-1.0498,4.79-3.8389,4.4009-8.5215,6.7271-13.543,6.7271Z"/><path class="cls-4" d="M442.9571,98.109c-2.3652,0-6.5-.937-7.6162-7.2134-.5-2.8115-.5879-7.001-.5879-14.7642,0-1.1123,0-2.1719-.0059-3.1846-1.7822.6001-3.7686.167-5.1445-1.1494-1.4766-1.4116-1.9678-3.5688-1.249-5.481.7344-1.9536,1.7979-3.4448,3.6719-5.1475.6035-.5483,1.3301-.9443,2.1182-1.1538.1533-.041.3057-.0791.458-.1157-.0264-1.6162-.0859-3.0264-.2158-4.4536-.082-.9038.0781-1.8135.4648-2.6348,1.2197-2.5894,4.7148-5.3843,8.2354-5.3843,2.9424,0,5.3447,2.438,5.4219,5.4653.1025,2.5225.1514,4.6499.1748,6.6191,1.1406-.0215,2.7061-.0947,3.6553-.3428,1.8369-.4814,3.79.1001,5.0664,1.5078,1.2764,1.4067,1.665,3.4067,1.0078,5.189-1.4629,3.9727-4.9785,6.4717-9.5303,6.8447.0088.8677.0156,1.4941.0156,1.4941l.0186,1.7661c.0352,3.4072.0625,6.1313.1914,8.2471.5654.1191,1.1143.3345,1.6182.646,1.5039.9292,2.4395,2.5625,2.4395,4.3306v.7764c0,.938-.2588,1.8579-.7471,2.6582-1.666,2.728-5.2383,5.4805-9.4609,5.4805ZM438.3106,53.044v.0049-.0049Z"/><path class="cls-4" d="M476.3888,98.1739c-7.5391,0-7.7598-8.1919-7.8779-12.5928-.0303-.7808-.0479-2.1069-.0635-3.6733-.4473,1.2017-.7949,2.3506-1.0547,3.4766l-.6797,6.0596c-.0674.5962-.2383,1.1758-.5068,1.7124-.5986,1.1963-1.5684,2.7207-3.7764,3.8994-.0957.0508-.1924.0986-.29.1436-1.3281.6035-2.626.9097-3.8574.9097h-.2588c-2.5234,0-4.668-1.8457-5.043-4.3418-.1475-.9771-.3154-3.1221-.3154-11.1045.084-16.1069.3096-23.6558.4551-27.3022-.5254-.0864-1.04-.2559-1.5264-.5088-1.6865-.8784-2.7441-2.6221-2.7441-4.5234v-1.0996c0-1.3521.5361-2.6484,1.4922-3.605.7939-.7944,2.0762-1.9482,3.0615-2.6514,2.1562-1.6138,4.5107-3.1758,7.4658-3.1758,6.7803,0,6.7803,8.0742,6.7803,11.9546,0,.772-.0693,2.4106-.2031,5.4819-.0693,1.5942-.1504,3.4673-.2275,5.4209,1.9287-1.7451,4.5293-3.457,7.6826-3.457,7.5449,0,7.7012,8.2739,7.8154,14.3154.0654,3.8027.0654,8.3633.0654,9.8618.0059.54.0176,1.0073.0342,1.4111,1.3291.5337,2.373,1.6021,2.876,2.9448l.1934.5166c.5635,1.5049.3838,3.1875-.4834,4.54-.8955,1.3979-4.4756,5.3872-9.0137,5.3872Z"/><path class="cls-4" d="M491.13,98.3038c-7.6211,0-7.6211-8.4629-7.6211-11.2437,0-.9292.0391-2.6211.0879-4.6895.0547-2.29.1182-4.981.1504-7.5938-.5615-.0801-1.1133-.2544-1.6328-.5249-1.6865-.8784-2.7441-2.6221-2.7441-4.5234v-1.0996c0-1.2817.4824-2.5166,1.3516-3.4585.9336-1.0117,2.0176-1.8667,2.7354-2.4321l.2861-.2261c.0332-.0264.0664-.0522.0996-.0776.1992-.1509.4014-.3022.6084-.4526-.8232-.9883-1.3799-2.1172-1.8643-3.6343-.3857-1.2051-.3086-2.5103.2148-3.6621,1.1133-2.4512,3.0166-4.3638,5.6582-5.6855,1.1426-.5713,2.457-.6943,3.6855-.3423,4.3467,1.2441,5.6689,5.3545,6.1035,6.7051.2236.6963.2949,1.4326.209,2.1592-.2031,1.7246-.9482,3.0913-1.8643,4.1582,1.1348,1.6079,1.7051,3.9922,1.7051,7.1436,0,2.0894-.1406,5.9756-.2637,9.4043-.0967,2.6743-.1885,5.2002-.1885,6.1807,0,.1626.001.3184.0039.4683.167.0635.332.1357.4932.2173,1.5938.8047,2.6494,2.3833,2.7861,4.1626l.0645.8413c.1104,1.4468-.3994,2.8721-1.4033,3.9189-1.334,1.3916-4.1104,4.2866-8.6611,4.2866ZM489.004,58.3355c.0947.0459.1963.0869.3047.1196l-.0938-.1875-.2109.0679ZM488.9024,54.9801h0Z"/><path class="cls-4" d="M505.6788,98.5616c-2.3496,0-10.0146-1.0762-10.0146-14.9287,0-14.5386,7.0127-24.3062,17.4512-24.3062,1.79,0,3.3984.3062,4.6699.647.7578-.2935,1.4365-.4756,1.9766-.6211.1738-.0469.3457-.0923.5156-.1426,1.6836-.4946,3.5059-.0903,4.8213,1.0752,1.3145,1.1646,1.9375,2.9238,1.6484,4.6562-.4619,2.7705-.7725,9.3462-.7725,16.3628,0,1.1548,0,2.4185.0371,3.4277.1592.0522.3164.1118.4717.1802,1.6855.7402,2.8418,2.332,3.0244,4.1641l.0645.6475c.127,1.2812-.2344,2.563-1.0127,3.5884-2.376,3.1313-5.4365,4.9268-8.3955,4.9268-2.7383,0-4.8076-1.1836-6.1992-3.5352-2.3242,2.3237-5.0518,3.8579-8.2861,3.8579ZM511.6368,72.1129c-.1455.2563-.3232.6274-.5137,1.1538-.6416,1.6987-.958,3.6895-.9893,6.1411.8545-2.042,1.5029-4.3354,1.5029-6.1216v-1.1733Z"/><path class="cls-4" d="M311.6289,105.011c-3.6211,0-14.6416,0-14.6416-9.6982,0-4.5537,4.4658-7.8589,10.6182-7.8589,3.3838,0,8.1592,1.1562,12.374,2.1768,1.6055.3887,3.7617.9106,4.5938,1.0259,1.7979-.3335,8.7383-3.0601,14.2725-7.9146,2.3115-2.0737,6.0762-7.5347,8.7617-12.0107,1.9189-3.1992,3.6445-6.4092,5.2861-9.5684-5.9121-5.4658-9.1162-12.8682-9.1162-21.2622,0-15.2373,12.541-27.1729,28.5518-27.1729,2.7402,0,11.0771,0,11.0771,6.3643,0,.5288-.0723,1.0308-.2061,1.5015,6.457-4.0601,12.4404-5.3359,17.4092-5.3359,12.542,0,21.999,8.9136,21.999,20.7339,0,21.1367-21.9561,35.3354-42.4619,35.3354-5.9697,0-11.3936-.9937-16.1934-2.9604-10.9922,19.1064-22.2168,29.7319-35.0547,33.252l-1.3193.6152c-1.9238.8555-10.3457,2.7773-15.9502,2.7773ZM369.6338,57.8337c2.9297,1.2363,6.5342,1.9141,10.3975,1.9141,15.6787,0,26.6299-9.769,26.6299-23.7563,0-8.6953-3.8623-8.6953-5.9365-8.6953-7.2529,0-14.457,4.7939-21.4141,14.2476-3.127,4.1992-6.2061,9.6074-9.6768,16.29ZM372.9033,24.3069c-7.9062,0-13.8691,7.5439-13.8691,17.5479,0,2.2944.2764,4.2847.8564,6.0405,5.9062-10.7588,11.9229-18.1445,17.6992-23.1284-.543-.0024-.9775-.0825-1.3975-.1602-.6064-.1123-1.6211-.2998-3.2891-.2998ZM375.8428,23.2424h.0107-.0107Z"/><path class="cls-4" d="M123.4396,37.5042c-.6436,0-1.2812-.1216-1.8794-.3589-1.7681-.7007-3.0879-2.1694-3.9224-4.3652-.5249-1.3765-.792-2.8584-.792-4.3994,0-3.6396,1.3071-7.2378,3.8862-10.6943,2.3228-3.1133,5.356-5.7593,9.0156-7.8657.7739-.4448,1.6514-.6792,2.5439-.6792,2.5005,0,4.6226,1.4956,5.4058,3.8105.3774,1.1475.7056,3.3594-1.1904,5.7354-.3643.4561-.8037.8462-1.2998,1.1538-.9995.6191-1.793,1.3755-2.4248,2.3115-.4106.6094-.6274,1.2007-.6709,1.8423.8047.9243,2.3174,3.2861.7227,6.7109-.5015,1.0684-1.2061,2.0903-2.1021,3.0503-.8247.8833-1.7476,1.6567-2.7446,2.3008-1.4824.9595-3.0142,1.4473-4.5479,1.4473ZM132.1227,24.6096h0ZM130.3766,22.7029c.0015.0005.0024.001.0039.002-.0015-.001-.0024-.0015-.0039-.002Z"/><path class="cls-4" d="M160.0231,43.7449c-1.6162,0-3.0049-.4507-4.1387-1.3477-.5054-.3999-.9307-.8916-1.2529-1.4497-.7671-1.3286-1.1104-2.8994-1.02-4.6694.0596-1.1841.2676-2.3677.6187-3.5181.3857-1.2593.9175-2.3794,1.5825-3.334,2.1758-3.105,4.978-2.9805,6.1821-2.7432.5342-.3589.9385-.8423,1.2612-1.5039.4941-1.0142.7524-2.0791.7881-3.2524.0181-.5845.1367-1.1611.3501-1.7056,1.1079-2.8242,3.1836-3.6475,4.3218-3.8872,2.4414-.4907,4.7974.5962,6.0503,2.7622.4482.7739.6846,1.6519.6855,2.5459.0068,4.2231-.7686,8.1738-2.3037,11.7422-1.7036,3.9604-4.1655,6.8916-7.3179,8.7124-1.3369.771-2.7534,1.2803-4.2129,1.5142-.5537.0894-1.0854.1343-1.5942.1343ZM158.7047,36.5378h.0098-.0098ZM163.9811,27.5388l.0044.0029-.0044-.0029ZM161.4562,26.9807h0ZM161.4562,26.9807h0Z"/><path class="cls-4" d="M76.7906,128.9075c-.9106,0-1.8291-.2437-2.6533-.7461l-.2065-.126c-2.1343-1.3022-3.0103-3.9595-2.0684-6.2754.1685-.4141.3398-.8237.5103-1.2305.5269-1.2583,1.0244-2.4468,1.2983-3.5015.8071-3.1055.7119-6.541.5122-9.4917-.1943-2.3687-.7329-4.8384-1.3032-7.4531-.4995-2.2886-1.0156-4.6553-1.3345-7.1533-.0044-.0332-.0083-.0659-.0117-.0991-.104-.8081-.1777-1.5586-.2256-2.291-.1172-1.8057.731-3.5381,2.229-4.5527.7778-.5269,1.5469-1.0703,2.3164-1.6387,1.4639-1.0835,3.395-1.3022,5.0654-.5762s2.8267,2.2881,3.0332,4.0977c.0737.6436.1543,1.2871.2524,1.9224.207,1.3911.4771,2.8579.8281,4.5083.1318.5757,1.4453,6.3413,1.8643,8.8428.0122.0737.0229.1475.0322.2212.8354,6.8081.1255,12.7456-2.1108,17.647-1.2275,2.6084-2.8779,4.6519-4.1812,6.147-.9985,1.1455-2.4131,1.749-3.8467,1.749ZM120.3566,77.3391c-.7207,0-1.4526-.1538-2.1489-.4775-2.5283-1.1772-3.6426-4.1675-2.5005-6.7119.5122-1.1411,1.0503-2.2559,1.5981-3.313,1.2837-2.4741,4.3145-3.4614,6.8096-2.2129,2.4927,1.2476,3.5225,4.2656,2.311,6.7764l-1.4727,3.0532c-.8779,1.8208-2.6982,2.8857-4.5967,2.8857Z"/><path class="cls-4" d="M127.5445,107.0203c-10.0815,0-16.5952-7.2822-16.5952-18.5532,0-6.3618,2.5474-13.3867,4.6841-18.1602l1.8281-3.7827c.6675-1.3335,1.8853-2.3076,3.3325-2.6665,2.0718-.5142,4.2285-.7324,6.5122-.9639.6069-.0615,1.2363-.125,1.8901-.1973,2.5938-.2881,4.9897,1.4375,5.5425,3.9917.2803,1.2979.0396,2.5967-.5913,3.667-4.9453,10.4551-7.251,17.7158-7.251,22.8267,0,1.2627.1494,1.9312.248,2.2349.0972.0117.2285.021.3999.021,1.2124,0,2.3696-.4175,3.5391-1.2754.8315-.6099,1.8286-.9536,2.8594-.9854.4575-.0142.9048-.0493,1.3682-.1069.479-.0615.9697-.1606,1.4819-.2998,2.3022-.6279,4.7319.4263,5.8481,2.5352,1.1162,2.1094.6201,4.7109-1.1938,6.2617-4.1733,3.5674-8.9805,5.4531-13.9028,5.4531Z"/><path class="cls-4" d="M110.0118,66.1751c-1.0127,0-2.0312-.3008-2.9155-.917l-.2065-.144c-.5889-.4106-1.0845-.9414-1.4541-1.5571-.0386-.0635-.0757-.125-.1206-.1802-1.7656-2.1914-1.4229-5.3989.7666-7.1675,2.1899-1.7676,5.3975-1.4292,7.168.7578l.7275.8984c1.5986,1.9746,1.5005,4.8242-.2305,6.6841-.9966,1.0708-2.3599,1.6255-3.7349,1.6255Z"/><path class="cls-4" d="M387.4834,141.3933c-4.6357,0-9.4463-.6904-13.9512-2.9604-.0381-.019-.0752-.0386-.1133-.0586-7.8672-4.2139-11.6953-11.9478-10.7959-21.2881-5.3945-1.1035-12.5664-3.2773-18.915-6.1392-1.5068-.6816-2.9902-1.3867-4.4678-2.0898-3.9189-1.8652-7.6211-3.6274-11.4844-4.7886-.8174-.2319-1.7041-.5044-2.585-.7764-1.0283-.3169-2.0498-.6333-3.0654-.9048-2.5645-.686-4.1738-3.2231-3.7012-5.8345l.1885-1.042c.4893-2.7056,3.0244-4.541,5.7549-4.1387.8779.1279,1.749.2446,2.6172.3608,2.1953.2939,4.4658.5981,6.7725,1.0732.0566.0117.1133.0244.1699.0381,3.791.916,7.5244,1.8867,11.1348,2.8262,4.8164,1.2529,9.7969,2.5483,14.9824,3.7305,4.1543.8564,6.2178,1.1992,8.3291,1.4453,4.7842-8.2476,11.3281-14.1948,18.6465-16.8843.0352-.0132.0703-.0254.1055-.0376,6.6289-2.2734,11.4727-1.7939,14.4004,1.4253,2.9541,3.248,2.957,8.1968.0088,14.708-4.5469,9.6973-14.7617,16.3232-26.6943,17.6191-.2998,2.0439-.2217,4.1934.7783,5.874,1.2188,2.0493,3.8457,3.4746,7.8086,4.2368,6.8643,1.1133,14.2617-.4038,21.2539-2.0522,10.9678-2.6919,21.9404-6.6079,32.5518-10.3955,7.9902-2.8516,16.2529-5.8008,24.5986-8.2666,12.3438-3.418,22.4463-4.8052,31.8857-4.3794,9.959.3457,17.4482,4.3462,21.0361,11.2632,1.7578,3.3657,2.3369,6.979,1.7217,10.7402-.4043,2.4658-2.5342,4.2764-5.0332,4.2764h-3.3223c-1.5127,0-2.9482-.6719-3.917-1.834s-1.3721-2.6943-1.0996-4.1826c.1836-1.0068.0771-1.894-.3369-2.7837-.9346-1.6802-2.9395-3.1401-5.1377-3.7344-8.9502-2.2891-19.5752-1.5933-32.4238,2.1465-8.5947,2.5-17.252,5.8042-25.624,9-14.1357,5.3955-28.7529,10.9746-44.3223,13.2861-.0537.0083-.1084.0151-.1621.0215-2.417.2798-4.9766.5-7.5928.5ZM391.4199,94.0862c-3.1934,1.1104-5.8906,3.4395-8.0781,6.084,1.8027-.6602,3.4248-1.5962,4.9346-2.8276,1.3213-1.0767,2.3818-2.1802,3.1436-3.2563Z"/><path class="cls-4" d="M440.7344,170.865c-1.6885,0-3.3008-.8403-4.2588-2.2939l-.8369-1.27c-1.0322-1.5664-1.1211-3.5728-.2314-5.2246.8145-1.5107,2.3262-2.5015,4.0137-2.6592.2344-.0454.5-.0864.8008-.1089,1.0215-.2856,2.0547-.5708,3.0938-.8574,4.2939-1.1841,8.7344-2.4087,12.7764-3.8252,14.2178-5.0786,29.0254-10.9014,39.8184-21.1187l.126-.1367c2.7109-2.9531,6.4248-6.9976,7.0459-10.4097.4414-2.4248,2.5537-4.1865,5.0176-4.1865h3.3223c1.4932,0,2.9111.6543,3.8809,1.7905.9688,1.1362,1.3906,2.6401,1.1553,4.1143-1.1396,7.1265-6.2422,13.1675-11.082,18.1372-.0371.0386-.0752.0767-.1143.1138-5.624,5.4204-12.5889,9.9971-21.9189,14.4028-9.7764,4.5493-23.6953,9.0488-41.3945,13.3853-.4043.0991-.8115.147-1.2139.147ZM439.8974,159.3953h-.0029.0029Z"/><path class="cls-4" d="M443.6777,179.843c-3.4932,0-6.9033-1.4795-9.3672-2.5488-1.6299-.707-3.1689-1.3745-4.3779-1.626-2.5332-.5273-4.418-.7681-5.5537-.8774-2.0859-.2007-3.8369-1.6562-4.4141-3.6704s.1357-4.1768,1.7979-5.4521c.9053-.6938,2.376-1.897,4.2451-3.686.8936-.854,1.8447-2.2358,2.8525-3.6987,2.6738-3.8833,7.1455-10.3833,14.873-8.3599.0029.001.0059.0015.0088.0024,4.9258,1.2988,7.292,6.2759,6.7324,10.3369-.1113.8066-.3232,1.5684-.6123,2.2861.625.4541,1.207.9868,1.7285,1.6108,2.6279,3.1523,3.2578,8.6265-.2314,12.3379-2.3594,2.5015-5.0439,3.3452-7.6816,3.3452ZM435.3867,166.699c.2021.0767.4033.1548.6035.2349-.0449-.1221-.0859-.2466-.1221-.373s-.0674-.2534-.0938-.3809c-.1279.1738-.2568.3467-.3877.519Z"/><path class="cls-4" d="M112.9469,64.1384c-1.7695,0-3.4888-.9214-4.4307-2.5669l-.9009-1.5737c-1.3994-2.4443-.5522-5.5605,1.8921-6.9595,2.4453-1.4004,5.5605-.5527,6.9595,1.8921l.9009,1.5737c1.3994,2.4443.5522,5.5605-1.8921,6.9595-.7988.4575-1.6699.6748-2.5288.6748Z"/><path class="cls-4" d="M121.8292,74.2859c-.7349,0-1.481-.1597-2.1885-.4966-2.5435-1.2104-3.6235-4.2534-2.4126-6.7964l.1797-.3774c1.21-2.543,4.2539-3.623,6.7964-2.4126,2.5435,1.2104,3.6235,4.2534,2.4126,6.7964l-.1797.3774c-.8735,1.8354-2.7021,2.9092-4.6079,2.9092Z"/><path class="cls-4" d="M129.7223,72.8752c-.8486,0-1.7085-.2119-2.5005-.6587-2.4531-1.3838-3.3203-4.4941-1.9365-6.9473l1.4316-2.5381c1.3833-2.4536,4.4941-3.3203,6.9473-1.9365s3.3203,4.4941,1.9365,6.9473l-1.4316,2.5381c-.937,1.6616-2.666,2.5952-4.4468,2.5952Z"/><path class="cls-4" d="M128.9962,74.4246c-.6807,0-1.3721-.1367-2.0356-.4263-2.582-1.1255-3.7622-4.1313-2.6367-6.7129.8159-1.8716,1.6548-3.4565,2.5645-4.8457,1.542-2.3564,4.7046-3.0161,7.0601-1.4731,2.3564,1.543,3.0161,4.7041,1.4731,7.0601-.584.8921-1.1719,2.0137-1.748,3.335-.8364,1.9185-2.7104,3.063-4.6772,3.063Z"/><path class="cls-4" d="M134.0992,103.3757c-2.1714,0-4.1133-1.3794-4.8223-3.4443-.7261-2.1152.0107-4.457,1.8174-5.7754,3.7212-2.7153,5.9448-8.5312,5.9448-12.585,0-8.3154-3.3052-8.4761-5.7183-8.5933-1.6133-.0566-6.7402.1343-10.7832,1.7773-1.9053.772-4.0869.3286-5.5361-1.1279-1.4492-1.457-1.8823-3.6416-1.0986-5.5415l.9521-2.3081c.5386-1.3057,1.5947-2.3296,2.9165-2.8276,6.6729-2.5142,13.2749-2.4224,15.1421-2.3354,11.1431.3691,18.9229,8.1812,18.9229,19.0078,0,7.9829-4.0845,16.6025-10.4058,21.9604-.5693.4824-1.2373.834-1.957,1.0298-.9751.2656-1.9189.4551-2.8857.5781-.7852.0981-1.5635.1587-2.3296.1821-.0532.002-.106.0029-.1592.0029Z"/><path class="cls-4" d="M103.0533,92.9934c-4.498,0-7.2817-3.6587-7.2817-7.0488,0-4.5732,3.7017-10.0552,11.0083-16.311.0566-.5073.0791-1.1143.0361-1.9316-.0508-1.0093-.6235-4.1636-2.5278-5.5088-1.8672-1.3184-4.9556-.7891-7.2197-.1128-2.6011.7778-5.3071,2.5439-7.4238,4.8462-1.0093,1.0977-2.4517,1.6973-3.9385,1.6445-1.4902-.0542-2.8818-.7573-3.8091-1.9253l-1.0059-1.2666c-1.5688-1.9751-1.4575-4.8003.2607-6.6465,1.5845-1.7021,3.3213-3.2402,5.1616-4.5718.0542-.0396.1089-.0771.1646-.1143,7.5249-5.0083,14.9199-6.4819,21.9824-4.3784,4.7163,1.4116,10.1357,5.6143,10.9634,12.9561,1.4058-.0337,2.792.5029,3.8057,1.5469,1.415,1.4585,1.8291,3.6177,1.0542,5.4961l-.9521,2.3081c-.5215,1.2646-1.5293,2.2661-2.7964,2.7808-1.9165.7778-3.3174,1.7607-4.1646,2.9224-.5947.8154-1.1279,2.1914-1.6924,3.6479-.5806,1.4976-1.2388,3.1953-2.1685,4.7817-.9688,1.6792-3.9707,6.8853-9.4565,6.8853Z"/><path class="cls-4" d="M76.3971,95.3088c-.8188,0-1.6396-.1968-2.3892-.5942-1.5586-.8267-2.5713-2.395-2.6968-4.1377-.0005-.0039-.001-.0073-.001-.0107-1.3408-12.019,2.2393-23.6123,9.8301-31.8223,1.0107-1.0933,2.4575-1.6875,3.936-1.6338,1.4878.0557,2.8765.7588,3.8022,1.9248l1.0059,1.2666c1.5625,1.9673,1.4595,4.7793-.2427,6.627-2.9751,3.229-5.041,7.7051-5.6675,12.2798-.002.0122-.0034.0244-.0054.0366-.376,2.6045-.3813,5.4258-.0166,8.626.2065,1.8115-.5693,3.5952-2.0352,4.6787-.8716.645-1.7417,1.2603-2.6592,1.8818-.8604.5825-1.8589.8774-2.8608.8774Z"/><path class="cls-6" d="M112.9416,59.0361c5.4065-5.5144,13.1033-13.3368,22.8746-22.8747,9.8881-9.6546,15.4115-14.4864,16.4442-14.4864.7994,0,1.0329.5748,1.0329,1.3831,0,.6915-4.3649,6.4304-12.4118,17.3603-8.2805,11.2622-14.1451,19.7672-17.8184,26.2066l7.7597-.7993.0538-.009c.0898-.1886.1887-.3862.2784-.5838,2.5147-5.0742,7.3555-12.8339,14.4326-24.0152,7.1309-11.2622,10.921-17.2436,10.921-18.5099,0-1.8411-1.0328-2.8739-2.9817-2.8739-4.4905,0-20.2343,16.561-41.6181,37.7113l-.2425.2425-2.3799,2.3889c-6.9783,7.095-15.7527,16.5341-25.6588,24.617-1.5447,1.2663-3.1344,2.4877-4.742,3.6553-.8262.6107-1.6525,1.1944-2.4878,1.7602-8.8911,6.0443-18.6984,10.3282-29.2153,10.3282-15.7526,0-25.4072-9.1966-25.4072-23.4494,0-16.9023,13.5703-30.1223,28.9728-30.1223,10.0049,0,17.2436,5.2898,17.2436,11.1544,0,2.4159-.9161,4.715-.9161,7.1219,0,2.2991,1.1495,4.4905,3.5564,4.4905,2.1913,0,3.799-1.7243,3.799-4.1402,0-6.3227-8.047-21.1503-26.4401-21.1503-17.7107,0-31.9635,13.5613-31.9635,30.1133,0,16.2107,13.3369,27.3652,30.5804,27.3652,11.1633,0,21.0874-3.9068,29.9965-9.6367v-.009c.8623-.5478,1.7155-1.1136,2.5597-1.7064,12.0704-8.3883,22.264-19.893,31.245-28.9997l2.5326-2.5326Z"/><path class="cls-6" d="M196.4158,93.3054c-1.6813,0-3.0394-1.0989-3.0394-7.5663v-9.0529c0-6.7261-.7113-7.4374-1.7462-7.4374-2.8452,0-7.4365,7.4374-8.924,15.0678-.3236,1.5524-.3881,3.4275-.4526,6.0148-.5824,1.6164-2.4575,2.9741-3.945,2.9741-.1294-1.4866-.1938-2.5215-.1938-5.7552,0-4.6563.2583-9.1827.2583-11.899,0-1.6813,0-6.4025-1.7458-6.4025-1.0994,0-2.2637.97-3.4275,2.5224-2.5869,3.5564-4.1388,6.6612-5.5614,13.1926-.3881,1.6813-.5175,4.3326-.7762,6.2078-.7113,1.1638-2.522,2.1339-4.0094,2.1339,0-.2587.1294-2.1339.3232-5.6254.3881-7.1787.5175-10.1536.5175-13.5812,0-4.7852-.1938-5.4965-.97-5.4965-.9056,0-1.8756.5175-3.1043,1.4226l.0649-1.0989c3.1039-2.7162,5.4969-4.3335,6.9195-4.3335.8407,0,1.0994,1.3586,1.0994,4.3975,0,2.0698-.1294,5.885-.3881,10.0887,2.0049-4.2686,4.1388-7.5663,6.2082-10.1528,2.3281-2.7811,4.3975-4.2686,6.4025-4.3335,1.8751,0,2.522,1.94,2.522,8.0189,0,2.1988-.0649,4.5922-.0649,6.4674,2.5224-5.3027,4.2037-7.89,6.5318-10.8,2.0045-2.5215,4.2033-3.6863,5.432-3.6863,1.7462,0,3.2337.3236,3.2337,9.3125,0,3.945-.0649,6.1438-.0649,9.7651,0,4.9799.1943,6.6612,2.4575,6.6612.2587,0,.4526-.0649.7113-.1298l.0649.5175c-.5824.97-2.5869,2.5864-4.3331,2.5864Z"/><path class="cls-6" d="M224.0898,93.4352c-2.7811,0-3.2337-5.0439-3.2337-9.2476,0-1.1638,0-1.7462.0649-2.8452l-.3236-.1298c-2.2632,4.915-6.2082,12.5462-10.9939,12.5462-2.9101,0-4.9146-3.2337-4.9146-9.83,0-9.3774,3.6863-19.2066,12.3515-19.2066,2.1343,0,4.0094.6464,5.1088,1.0349,1.2288-.8411,2.393-1.0349,3.4924-1.3586-.5175,3.1039-.8407,9.9589-.8407,17.2016,0,1.8111,0,3.7512.1294,5.0448.1294,1.6813.6464,3.6863,1.8751,3.6863.5175,0,1.0349-.0649,1.5519-.4534l.0649.6473c-1.4226,1.8751-3.1043,2.9101-4.3326,2.9101ZM220.6623,69.5074c-1.2288-1.4226-2.5224-2.5215-5.3031-2.5215-2.1988,0-3.9445,1.6164-5.1088,4.8501-.9051,2.3926-1.2932,5.1088-1.2932,8.2776,0,5.7552.7758,9.3766,2.9745,9.3766,4.0094,0,8.7306-10.0238,8.7306-15.9089v-4.0739Z"/><path class="cls-6" d="M253.9645,93.3703c-2.4575,0-2.6513-2.8452-2.7807-7.6312-.0649-1.6813-.0649-5.4965-.1294-9.0529-.0649-5.8201-.5819-7.5663-1.8756-7.5663-1.8751,0-4.7207,3.8801-6.7901,8.5364-.97,2.1339-1.8756,4.5265-2.4575,7.1778-.4526,2.2637-.7758,4.8501-.9051,6.2087-.5175,1.2288-2.1988,2.2628-3.6863,2.2628-.1294-.3877-.1294-1.2928-.1294-2.1339,0-1.6164.0645-3.8152.1294-6.014l.3232-7.6312c.1294-2.9101.3236-5.1088.3236-6.6603,0-1.4875-.1943-2.2637-.7762-2.2637-.9056,0-1.8756.5175-3.1043,1.4226l.0649-1.0989c3.5569-3.3635,4.9795-4.3335,6.2727-4.3335,1.0994,0,1.423,1.2937,1.423,5.8201,0,1.6173-.6468,10.0238-.6468,10.0238,3.0394-6.5314,6.0144-10.6702,7.7602-12.4805,2.1343-2.2637,3.8801-3.3635,5.4969-3.3635,2.1343,0,2.5869,2.4575,2.7162,9.3125.0645,3.7512.0645,8.2776.0645,9.7651.0649,5.5614.3236,6.4025,1.7462,6.4025.97,0,1.4875-.2587,1.4875-.2587l.1938.5175c-.5819.9051-2.7807,3.039-4.7207,3.039Z"/><path class="cls-6" d="M282.0271,93.4352c-2.7807,0-3.2333-5.0439-3.2333-9.2476,0-1.1638,0-1.7462.0649-2.8452l-.3236-.1298c-2.2632,4.915-6.2082,12.5462-10.9934,12.5462-2.9105,0-4.915-3.2337-4.915-9.83,0-9.3774,3.6863-19.2066,12.3515-19.2066,2.1343,0,4.0094.6464,5.1088,1.0349,1.2288-.8411,2.393-1.0349,3.4924-1.3586-.5175,3.1039-.8407,9.9589-.8407,17.2016,0,1.8111,0,3.7512.1294,5.0448.1294,1.6813.6464,3.6863,1.8751,3.6863.5175,0,1.0349-.0649,1.5519-.4534l.0649.6473c-1.4226,1.8751-3.1043,2.9101-4.3331,2.9101ZM278.6,69.5074c-1.2288-1.4226-2.5224-2.5215-5.3031-2.5215-2.1988,0-3.9445,1.6164-5.1088,4.8501-.9051,2.3926-1.2932,5.1088-1.2932,8.2776,0,5.7552.7758,9.3766,2.9745,9.3766,4.0094,0,8.7306-10.0238,8.7306-15.9089v-4.0739Z"/><path class="cls-6" d="M420.3369,93.6566c-5.3676,0-8.86-4.2037-8.86-12.805,0-9.0529,6.3376-16.9429,13.7746-16.9429,3.0394,0,4.4624.97,4.4624,3.4275,0,1.94-1.3581,4.0099-4.1388,6.3376-2.7162,2.1988-5.9499,3.945-9.7651,5.3676v1.4226c0,5.0439,1.8107,9.7002,6.7901,9.7002,3.8156,0,6.1433-1.7453,7.1138-2.5873l.3232,1.0998c-2.6513,3.0399-5.885,4.9799-9.7002,4.9799ZM422.2121,66.625c-5.0439,0-6.402,6.7901-6.4669,10.6702,2.5224-.906,4.4624-1.8111,5.9495-2.7811,2.1988-1.4875,3.3631-3.039,3.3631-4.915,0-2.1979-1.2288-2.9741-2.8456-2.9741Z"/><path class="cls-6" d="M447.678,67.659c-1.423,0-3.0394,0-3.945-.064,0,.2587.0649,6.6612.0649,6.6612.0645,5.8201.0645,9.894.4526,12.8041.2587,1.8751.9051,2.6513,1.8751,2.6513.5824,0,1.2937-.1938,1.94-.5175v.7762c-.7113,1.1638-2.7158,3.039-5.1088,3.039-2.7807,0-3.1039-2.3926-3.1039-16.878,0-3.2337,0-6.0797-.1294-8.6653h-2.3926c-1.2937,0-2.8456.064-4.2037.6455.3881-1.034.9056-1.8751,2.3281-3.1679.97-.2587,2.0694-.4526,4.2682-.4526,0-3.945,0-6.6612-.2587-9.5073.5175-1.0989,2.3926-2.4575,3.6214-2.4575.1943,0,.3236.2596.3236.5175.1938,4.7212.1938,8.0847.1938,11.5762h3.945c2.5864,0,4.5914-.1289,6.0789-.5175-.9056,2.4575-3.1688,3.5564-5.9495,3.5564Z"/><path class="cls-6" d="M476.3892,93.0742c-2.4575,0-2.6513-2.8452-2.7807-7.6304-.0649-1.6822-.0649-5.4974-.1294-9.0547-.0645-5.8201-.5819-7.5655-1.8756-7.5655-1.8751,0-4.7207,3.8801-6.7901,8.5355-.97,2.1347-1.8751,4.5273-2.4575,7.1787l-.7113,6.3376c-.3232.6464-.6464,1.1638-1.6164,1.6813-.7117.3236-1.2937.4526-1.7462.4526h-.2587c-.1938-1.2928-.2587-5.4325-.2587-10.3466.1294-24.5741.5819-28.9717.5819-30.3294,0-2.7171-.517-3.4275-1.3581-3.4275-.9051,0-1.7458.5175-3.0394,1.4226v-1.0998c.7117-.7113,1.8111-1.6813,2.4575-2.1339,2.0694-1.5515,3.2982-2.1988,4.4624-2.1988,1.2288,0,1.6813,1.7462,1.6813,6.855,0,2.0049-.7113,14.6152-.7113,21.6641v6.5314c2.9745-6.9199,5.8201-10.4764,7.5659-12.2875,2.1343-2.2628,3.8805-3.3626,5.4969-3.3626,2.1343,0,2.5869,2.4575,2.7162,9.3125.0645,3.7503.0645,8.2776.0645,9.7651.0649,6.3376.9705,6.4025,1.7462,6.4025.97,0,1.4875-.2587,1.4875-.2587l.1938.5166c-.5819.906-2.7807,3.0399-4.7207,3.0399Z"/><path class="cls-6" d="M491.1302,93.204c-1.94,0-2.522-1.6173-2.522-6.1438,0-2.3286.2587-9.5713.2587-15.3265,0-2.9101-.2587-3.4275-1.3581-3.4275-.9056,0-1.7462.5175-3.0394,1.4226v-1.0998c.7758-.8402,1.8107-1.6164,2.4571-2.133,1.8756-1.4235,3.2982-2.1996,4.3975-2.1996,1.5524,0,1.8756,1.1647,1.8756,4.5273,0,3.6214-.4526,13.1926-.4526,15.5852,0,2.1979.1938,3.6854.3877,4.3975.2587.8402.7117,1.2279,1.423,1.2928.4526,0,.97-.1289,1.4875-.4526l.0645.8411c-1.4875,1.5515-2.9101,2.7162-4.9795,2.7162ZM490.1602,60.1585c-1.8107-1.1647-2.1988-1.7471-2.7162-3.3635.6468-1.4226,1.7462-2.4575,3.2982-3.2337,1.3581.3885,2.0694,1.5524,2.6513,3.3626-.1294,1.0998-1.0345,2.1347-3.2333,3.2346Z"/><path class="cls-6" d="M520.1642,93.1391c-2.7803,0-3.2328-5.0448-3.2328-9.2476,0-1.1647,0-1.7462.064-2.8452l-.3228-.1298c-2.2637,4.915-6.2087,12.5454-10.9939,12.5454-2.9101,0-4.915-3.2328-4.915-9.8291,0-9.3766,3.6863-19.2066,12.3515-19.2066,2.1339,0,4.0099.6464,5.1088,1.0349,1.2288-.8411,2.3926-1.0349,3.4924-1.3586-.5175,3.1039-.8411,9.9589-.8411,17.2016,0,1.8111,0,3.7512.1298,5.0448.1289,1.6813.6464,3.6854,1.8751,3.6854.5175,0,1.0349-.064,1.5524-.4526l.064.6473c-1.4226,1.8751-3.1039,2.9101-4.3326,2.9101ZM516.7367,69.2114c-1.2287-1.4226-2.5224-2.5224-5.3026-2.5224-2.1988,0-3.945,1.6173-5.1088,4.8501-.9051,2.3935-1.2937,5.1097-1.2937,8.2776,0,5.7561.7762,9.3774,2.975,9.3774,4.0099,0,8.7302-10.0238,8.7302-15.908v-4.0748Z"/><path class="cls-6" d="M378.3069,19.0922c0,.3451-.46.5749-.6898.5749-.3447,0-1.8392-.46-4.7133-.46-10.5768,0-18.9689,9.6568-18.9689,22.6477,0,7.2427,2.4141,12.1866,6.6678,15.865,11.956-25.1767,25.9814-37.3624,40.0068-37.3624,10.0019,0,16.8995,6.7822,16.8995,15.6343,0,18.5093-19.8885,30.2355-37.3629,30.2355-6.4376,0-12.7607-1.2647-18.2787-4.5984-11.9564,22.1877-23.2226,32.1896-34.719,35.1786l-1.7243.8043c-1.0345.4596-8.7372,2.2996-13.7956,2.2996-7.2427,0-9.5419-1.4945-9.5419-4.5984,0-1.3796,2.1843-2.7592,5.5184-2.7592,4.7133,0,14.7152,3.2188,17.0144,3.2188s11.0364-3.4486,17.5893-9.1968c3.3337-2.989,7.7023-9.7721,9.7717-13.2207,2.7592-4.5984,5.0584-9.0828,7.3576-13.5663-6.8976-4.7133-10.4615-11.6104-10.4615-19.888,0-12.5313,10.1168-22.0732,23.4524-22.0732.6898,0,5.978.1149,5.978,1.2647ZM380.0311,64.8476c18.2791,0,31.7296-11.8411,31.7296-28.8559,0-7.5874-2.7588-13.7952-11.0364-13.7952-7.8172,0-16.5544,4.1388-25.5214,16.3246-4.0239,5.4035-7.8176,12.4156-12.3011,21.2677,4.7133,3.6792,11.2662,5.0588,17.1293,5.0588Z"/><path class="cls-8" d="M123.4398,32.4046c-.3846-.1526-.7293-.6324-1.0349-1.4366-.307-.8051-.4596-1.6673-.4596-2.5873,0-2.5285.9573-5.0755,2.8741-7.6444,1.9146-2.5663,4.4059-4.7308,7.4721-6.4955.3052,0,.4973.1158.5749.3456.0754.2298-.0399.5368-.3451.9192-1.6094.9972-2.9315,2.2619-3.966,3.7941-1.0345,1.534-1.5519,3.1811-1.5519,4.9431,0,1.6866.4205,2.7206,1.2647,3.1039.2298.2298.2101.6324-.0574,1.2068-.2697.5745-.6718,1.1498-1.2073,1.7243-.5368.5745-1.1314,1.0744-1.7817,1.4945-.6521.4219-1.2467.6324-1.7817.6324Z"/><path class="cls-8" d="M158.7048,36.5381c.0387-.7733.1739-1.538.4034-2.2903.2298-.7509.5266-1.3866.8896-1.9077.3638-.5189.7025-.7373,1.0164-.6532.7536.5397,1.8598.3866,3.3204-.4567,1.5259-.881,2.6936-2.1527,3.5049-3.8156.8097-1.662,1.2439-3.4394,1.3024-5.3315.1786-.4555.3871-.7091.6238-.7587.2378-.0477.4337.061.5863.3253.0053,3.5375-.6233,6.777-1.8892,9.7187-1.2659,2.9442-2.993,5.0468-5.1832,6.3112-.7964.4598-1.6193.7587-2.4697.8952-.8497.1376-1.4375.079-1.762-.1777-.2675-.4633-.3829-1.0833-.3432-1.8592Z"/><path class="cls-7" d="M120.3599,72.2382l1.4729-3.0535c-.503.9699-.997,1.9938-1.4729,3.0535ZM80.0531,95.4003c-.3413-1.5986-.6466-3.2062-.8891-4.8318-.1079-.7005-.1976-1.41-.2785-2.1195-.8262.6107-1.6525,1.1944-2.4878,1.7602.0449.6916.1169,1.3831.2065,2.0656v.009c.6467,5.0653,2.2542,9.8612,2.6674,14.9085.2514,3.7181.2784,7.4901-.6647,11.1185-.4669,1.7962-1.2752,3.5385-2.0207,5.3706l.2067.1257c1.2843-1.4729,2.5146-3.0626,3.3858-4.9126,2.1106-4.6252,2.2992-9.933,1.6885-14.9085-.3324-1.9848-1.3561-6.5831-1.8142-8.5859Z"/><path class="cls-6" d="M138.1332,97.6904c-3.0355,2.5955-6.6818,4.2301-10.5885,4.2301-8.1637,0-11.4957-6.0892-11.4957-13.4536,0-4.8947,1.9309-10.9209,4.2391-16.076l.0718-.1527,1.4729-3.0535.1886-.3772c2.2093-.5478,4.715-.7095,7.7326-1.0418l-.0269.009c-5.5235,11.6125-7.9303,19.4259-7.9303,25.4073,0,4.5983,1.4908,7.3555,5.7479,7.3555,2.4248,0,4.6342-.8532,6.5561-2.2632.5838-.018,1.1945-.0629,1.8412-.1437.7724-.0988,1.4998-.2514,2.1913-.4401Z"/><path class="cls-1" d="M110.0137,61.0748l-.2065-.1437c-.1617-.2694-.3323-.5209-.5209-.7544l.7274.8981Z"/><path class="cls-3" d="M510.2098,116.3117c-3.1883-6.1521-10.2742-8.2985-16.7406-8.523-10.2294-.458-20.4498,1.4728-30.2122,4.1761-19.3362,5.712-37.846,13.9296-57.4246,18.7345-7.58,1.7872-15.6181,3.3768-23.3148,2.1104-12.4836-2.3709-14.7737-10.6065-11.7651-20.0007,10.3911-.0717,21.5724-5.1641,26.1169-14.8545,3.9516-8.7295,1.2662-12.4207-8.1099-9.2055-7.7956,2.865-13.5434,9.6904-17.2256,16.9202-.1078.1976-.2065.3952-.3143.5928-4.0864-.3862-5.7927-.5388-12.2771-1.877-9.1876-2.0926-17.4232-4.4546-26.2335-6.5832-3.0086-.6196-6.0173-.9341-9.0978-1.3831l-.1886,1.0419c1.9129.5119,3.8439,1.1675,5.8017,1.7243,5.7657,1.7333,11.0377,4.6073,16.5789,7.1129,8.8464,3.9876,18.941,6.3856,22.8118,6.4934-2.2453,7.9841-1.2214,16.5699,7.2118,21.0874,5.7569,2.9009,12.5375,2.6585,18.6625,1.9489,24.1949-3.5924,46.0817-15.3935,69.2707-22.1382,11.3249-3.2961,23.629-5.1282,35.1786-2.1734,3.4218.9251,6.6818,3.2063,8.3524,6.3407.9879,2.0297,1.1676,4.0504.8082,6.0172h3.323c.4042-2.4698.1168-5.0204-1.2124-7.5619ZM394.7948,88.3089c2.2183-.0718,3.296,1.4549,2.9996,3.5564-.5838,3.8259-3.3858,7.0591-6.2957,9.4301-5.4964,4.4816-11.6663,5.4604-18.0159,5.1372,4.0684-8.5679,11.0556-17.7285,21.3119-18.1237Z"/><path class="cls-8" d="M511.4223,123.8737c-.934,5.8377-5.7029,11.2802-9.6994,15.3845-5.9725,5.7569-13.1393,9.9599-20.5577,13.4625-11.792,5.4874-27.8936,9.9726-40.4311,13.0442l-.8366-1.2701c.4131,0,.4954-.1476,1.0522-.0936,5.5144-1.5537,11.4224-3.0677,16.829-4.9626,14.8097-5.2899,30.302-11.4329,41.7706-22.3539,3.2872-3.5834,7.6429-8.2265,8.5499-13.211h3.323Z"/><path class="cls-8" d="M442.4412,154.8574c2.1537.5675,3.2304,2.9005,2.982,4.7103-.3542,2.5588-3.1802,4.6606-4.6529,5.5878,1.7403.0062,5.2506.2917,6.9067,2.2742,1.1695,1.4033,1.4924,3.9525-.0335,5.5748-4.3575,4.6193-11.0557-1.1623-16.6739-2.3296-2.768-.5759-4.8343-.8383-6.1027-.9603,1.0112-.7755,2.6246-2.0926,4.6671-4.0476,4.1465-3.9664,6.7642-12.4187,12.9072-10.8095Z"/><path class="cls-2" d="M132.7177,65.7106c-.2604-.009-6.7358-.4042-13.1481,2.0117l-.952,2.3081c5.8107-2.3619,12.5554-2.1643,12.9507-2.1464,8.1367.3951,10.5707,6.2148,10.5707,13.6871,0,5.7208-3.0536,13.0673-8.0381,16.7046.5838-.0179,1.1945-.0628,1.8412-.1436.7724-.0988,1.4998-.2515,2.1913-.4401,5.1821-4.3917,8.6039-11.5496,8.6039-18.0698,0-8.6307-6.3856-13.6692-14.0195-13.9116Z"/><path class="cls-8" d="M119.5696,67.7223l-.952,2.3081c-2.4788,1.006-4.7958,2.4878-6.3675,4.6432-1.7872,2.4518-2.5236,6.098-4.1402,8.8553-1.7243,2.9907-3.3319,4.3648-5.0563,4.3648-1.4909,0-2.1824-1.1495-2.1824-1.9489,0-3.2242,4.257-8.3971,10.5797-13.5702.2245-1.0329.5928-2.3711.458-4.9396-.0988-1.9579-1.6437-14.622-16.3007-10.2407-3.6938,1.1041-7.1487,3.487-9.7173,6.28l-1.0059-1.2662c1.3292-1.4281,2.7931-2.7393,4.4187-3.9157,5.0472-3.3589,11.1274-5.6939,17.7016-3.7361,3.6014,1.0777,7.4633,4.266,7.4273,10.1126-.009,1.9578-.3414,4.1402-.9161,6.4393,1.868-1.4998,3.9606-2.5954,6.0532-3.3858Z"/><path class="cls-8" d="M78.9214,78.516c-.476,3.296-.4131,6.6279-.036,9.933-.8262.6107-1.6525,1.1944-2.4878,1.7602,0-.0359-.009-.0808-.009-.1168-1.1496-10.0947,1.6706-20.5036,8.4961-27.8861l1.0059,1.2664c-3.781,4.1043-6.2238,9.6007-6.9693,15.0432Z"/><ellipse class="cls-4" cx="120.4134" cy="59.6667" rx="3.9895" ry="4.6782"/><ellipse class="cls-4" cx="124.0264" cy="55.2021" rx="2.3499" ry="2.4252"/><path class="cls-5" d="M145.0082,143.3249h-.056c-2.6495,0-5.1057-1.4064-6.5706-3.7622-.8608-1.3735-1.304-2.8676-1.304-4.4189,0-2.5286,1.2595-4.8625,3.3696-6.2434.3876-.2535.7987-.4695,1.2275-.6448.1518-.0625.3012-.1255.4481-.1893-2.0159-1.3316-3.3474-3.6124-3.3474-6.1969,0-.2156.0095-.4308.0284-.646-.0189-.2206-.0284-.4415-.0284-.6617,0-1.0312.2119-2.0138.5946-2.9071-.7119-1.1365-1.1233-2.4771-1.1233-3.9107,0-.1675.0058-.3345.0165-.502-.0296-.2753-.0444-.5534-.0444-.8341,0-4.0811,3.3454-7.4013,7.4573-7.4013h.1111c.3378,0,.6757.0235,1.0102.0708.0588.0053.2271.0189.567.0354.4868.023,1.0332.0391,1.6147.0473l1.9615.028c.5991.0086,1.0592.0128,1.3867.0128h10.3521c.3625,0,.8415-.0041,1.4373-.0128.6123-.0086,1.2336-.0218,1.8681-.0395.6086-.0169,1.1657-.0379,1.6731-.0634.3712-.0185.6333-.0325.7872-.0457.2391-.0235.4506-.0329.6909-.0329h.0556c4.1115,0,7.4569,3.3326,7.4569,7.4293,0,.2152-.0091.4292-.0272.6436.0173.2016.0272.4144.0272.6366,0,1.3781-.3773,2.6701-1.0341,3.7786.4321.9435.6728,1.9916.6728,3.0952,0,.2181-.0095.4271-.0263.6255.0169.1992.0263.4078.0263.6263,0,1.9665-.7682,3.7577-2.0208,5.0917,2.4545,1.2439,4.0799,3.7848,4.0799,6.68,0,2.5306-1.2657,4.8896-3.3857,6.3109-.3152.2115-.6469.3979-.9913.5571-.0276.0128-.0543.0259-.0807.0387-1.4246,1.5439-3.4112,2.4154-5.56,2.4154-1.5245,0-2.7146-.4633-3.7108-.8979-.8394-.3687-1.7249-.8629-2.7236-1.5188-.9221-.6061-1.8587-1.3188-2.8664-2.1817-.4436-.3794-.8839-.7872-1.3188-1.2221-2.8487,2.5142-6.3389,4.4741-10.3916,5.8332-.7444.2498-1.5241.3769-2.3092.3769ZM174.8872,139.1602c-.0012.0016-.0021.0029-.0029.0045.0008-.0016.0016-.0029.0029-.0045ZM175.8702,123.0721c-.0033.0099-.0066.0193-.0099.0292.0033-.0099.0066-.0198.0099-.0292ZM175.8151,115.9547c-.0008.0025-.0021.0045-.0033.007.0012-.0021.0025-.0045.0033-.007ZM175.8184,115.9485c-.0004.0012-.0012.0029-.0021.0041.0008-.0016.0012-.0029.0021-.0041ZM175.8213,115.9427l-.0012.0025.0012-.0025ZM175.82,110.2334c.0004.0008.0012.0021.0016.0033-.0004-.0012-.0012-.0025-.0016-.0033ZM175.8163,110.226c.0008.0012.0016.0029.0021.0045-.0004-.0016-.0012-.0033-.0021-.0045ZM175.8118,110.217c.0012.0025.0021.0045.0033.007-.0012-.0025-.0021-.0049-.0033-.007ZM147.3589,104.7989c.0177.0025.0358.0053.0535.0078-.0165-.0025-.0342-.0053-.0535-.0078ZM147.2934,104.7907h0Z"/><path class="cls-5" d="M183.3563,143.408c-1.3476,0-2.7314-.1798-4.1136-.5341-1.1184-.2856-2.1154-.6423-3.0207-1.0822l-.2214.0913c-.8797.3638-1.8225.551-2.7742.551-2.429,0-4.6921-1.1587-6.2101-3.1795-1.3744-1.8241-1.664-3.6367-1.664-4.8345,0-1.8229.6501-3.5231,1.7867-4.837-.3024-.3135-.5839-.6559-.8419-1.0254-.9781-1.3925-1.5015-3.0092-1.5015-4.6567,0-1.9632.7641-3.7848,2.0521-5.1316-.6497-1.1003-1.0225-2.3808-1.0225-3.7457,0-.2082.0086-.4168.0255-.6255-.0169-.209-.0255-.4185-.0255-.6271,0-4.0963,3.3454-7.4289,7.4573-7.4289h.0831c.1901,0,.3798.0074.5695.0222.2008.016.5267.0337.9764.0572.4674.0235.9802.0395,1.513.0465l.5851.0082c1.362-2.1541,3.7058-3.5013,6.3187-3.5013.8843,0,1.6393.1634,2.201.3337h.0255c2.6084,0,4.867,1.2513,6.2089,3.1931.1551-.0016.316-.0037.4831-.0058.6296-.0091,1.2587-.0218,1.8842-.0395.6349-.0181,1.2114-.0362,1.7253-.0547.1806-.0058.3321-.0111.4563-.0169.3362-.0469.6752-.0708,1.0139-.0708,4.0811,0,7.4013,3.333,7.4013,7.4297,0,.2666-.014.5329-.0416.797.0091.1457.014.2971.014.4547,0,.7366-.1074,1.4488-.3074,2.1216,1.0073,1.2867,1.5871,2.8919,1.5871,4.6131,0,2.2825-1.0262,4.3753-2.7092,5.7694-.0621.3847-.1535.76-.2724,1.1229,1.1382,1.6011,1.4233,3.1882,1.4233,4.3782,0,2.208-.9839,4.2934-2.6384,5.7241-1.3649,2.287-3.777,3.7091-6.4327,3.7091-1.7052,0-3.3137-.574-4.6296-1.6192-.7172.6345-1.5406,1.1703-2.4644,1.6023-1.4204.6658-3.0248.9909-4.9003.9909ZM193.9277,133.6686c-.0025.1041-.0066.2094-.0123.3152.1276-.0992.2481-.2004.3613-.3029-.1132-.0041-.2296-.0082-.3489-.0123ZM204.2798,112.446c.0004.0012.0012.0029.0016.0045-.0004-.0016-.0012-.0033-.0016-.0045ZM204.2769,112.4365c.0004.0025.0012.0049.0021.007-.0008-.0021-.0016-.0045-.0021-.007ZM193.7529,107.2366l-.0086.0049.0086-.0049ZM187.2747,103.4929c.0012.0008.0029.0012.0045.0021-.0016-.0008-.0033-.0012-.0045-.0021Z"/><path class="cls-5" d="M202.6137,141.8497c-1.7698,0-3.4161-.5662-4.7609-1.6377-.0185-.0144-.037-.0292-.0551-.044-1.0279-.8353-2.752-2.7211-2.752-5.9706,0-.3255.0049-.7152.0156-1.1707l.0272-1.1888c.0082-.3954.0128-.7662.0128-1.1324v-13.3584c0-.3736-.0045-.7732-.0128-1.197l-.0276-1.362c-.0091-.4485-.0214-.6218-.0226-.6403-.0136-.1806-.0206-.3621-.0206-.5436v-.0831c0-4.2284,3.312-7.5408,7.5404-7.5408h.1485c.63-.1654,1.2834-.2506,1.9389-.2506,4.1815,0,7.4569,3.3124,7.4569,7.5408v.1383c0,.1889-.0074.3773-.0222.5654-.0107.1477-.0152.3596-.0206.6345-.0095.4629-.0189.9378-.0276,1.4307-.0091.467-.0128.8839-.0128,1.2661v3.0195c.2852-.2852.5617-.5839.8283-.8954.7468-.8736,1.3855-1.8949,1.8957-3.0339.1177-.2633.2514-.5197.4-.767,1.3772-2.2953,3.8194-3.6655,6.5335-3.6655,1.4097,0,2.787.3543,4.0934,1.0534,2.6368,1.4217,4.1984,3.9782,4.1984,6.8495,0,.9752-.1922,1.9282-.558,2.81-1.039,2.6742-2.3701,5.0736-3.9572,7.1331-1.5365,1.9912-3.2256,3.7301-5.023,5.1707-1.7669,1.4155-3.6099,2.5969-5.4793,3.5128-1.7072.837-3.3569,1.5122-4.9024,2.0076-1.599.5135-3.0244.8604-4.3543,1.06-1.3299.2-2.2813.2893-3.0808.2893ZM227.6047,125.2567s-.0004.0004-.0004.0008t.0004-.0008ZM227.6092,125.253s-.0004.0004-.0004.0004t.0004-.0004ZM229.9411,119.967h0ZM229.9411,119.9609v.0008-.0008ZM229.9411,119.9551v.0012-.0012ZM217.33,115.0112c-.3563.3901-.6658.8135-.925,1.2633.2613-.451.5707-.8748.925-1.2633h0ZM202.831,105.9803h.0058c-.0021,0-.0066,0-.0058,0Z"/><path class="cls-5" d="M227.5208,142.378h-.0835c-2.7491,0-5.2563-1.4237-6.7063-3.8083-.832-1.3719-1.2517-2.831-1.2517-4.344,0-2.452,1.1534-4.6818,3.0474-6.0739-2.6133-1.1645-4.4387-3.7795-4.4387-6.8113,0-.1621.0053-.3238.0156-.4855-.0292-.2728-.0436-.5473-.0436-.8226,0-2.2755,1.0398-4.3144,2.673-5.6731.0016-.1148.0058-.2292.0123-.3428-.0276-.2675-.0416-.5349-.0416-.802,0-4.0967,3.3454-7.4297,7.4569-7.4297h.0835c.2049,0,.4098.0086.6143.0259.1736.0148.4732.0313.9003.0527.5111.0263,1.0485.0473,1.6266.0638.6082.0177,1.2019.0313,1.7879.0395.5905.0095,1.0468.0136,1.3879.0136h5.6217c.3596,0,.83-.0041,1.4122-.0136.6139-.0082,1.2184-.0218,1.8315-.0395.588-.0165,1.1217-.037,1.6052-.0625.3638-.0185.6111-.0321.7588-.0449.2448-.0251.4633-.035.7094-.035h.0556c4.1119,0,7.4573,3.333,7.4573,7.4297,0,.2099-.0086.4201-.0259.6308.0165.1975.0259.4049.0259.6218v.0107c1.5517,1.3624,2.5327,3.3602,2.5327,5.5826,0,.2185-.0095.4358-.028.653.0185.2185.028.4374.028.6551,0,4.0967-3.3454,7.4293-7.4573,7.4293h-.0556c-.2337,0-.4679-.0115-.7003-.0337-.1391-.0095-.3477-.0169-.6267-.0263-.5074-.016-1.0768-.0292-1.6978-.0383l-.3572-.0049c-.7353,2.2529-1.8718,4.3062-3.382,6.1068-1.5254,1.8188-3.4458,3.3853-5.7085,4.6563-2.115,1.1871-4.6201,2.1093-7.4499,2.7442-.5218.1169-1.0546.1761-1.5896.1761ZM248.2327,128.7538c.0198.0021.0428.0045.0695.007-.0235-.0021-.0465-.0045-.0695-.007ZM256.1509,122.5034c-.0111.0346-.0226.0695-.0342.1041.0119-.035.023-.0695.0342-.1041ZM255.7131,117.8228c.0004.0008.0008.0021.0012.0029-.0004-.0008-.0008-.0021-.0012-.0029ZM255.7082,117.8129c.0012.0025.0021.0045.0033.0066-.0012-.0021-.0021-.0041-.0033-.0066ZM253.5676,111.8966l.0012.0037-.0012-.0037ZM253.5656,111.8913c.0004.0012.0012.0029.0016.0045-.0004-.0016-.0012-.0033-.0016-.0045ZM253.5639,111.8859c.0004.0016.0012.0033.0016.0049-.0004-.0016-.0012-.0033-.0016-.0049Z"/><path class="cls-5" d="M263.086,142.6282c-.286,0-.5547-.0169-.8049-.044-.286.0292-.5748.044-.8653.044-4.0062,0-7.1898-3.0059-7.5133-6.9578-.3658.0535-.7382.0848-1.1415.0848-2.7977,0-5.3094-1.4554-6.7187-3.8926-.7333-1.2579-1.1283-2.7006-1.1283-4.1494,0-3.4597,2.2685-6.422,5.4896-7.3051,1.1982-.3584,2.3257-.8131,3.3532-1.3517,1.1406-.5995,2.1718-1.2394,3.0606-1.9006.8575-.6386,1.5941-1.2793,2.1858-1.9023.688-.7246,1.0513-1.2184,1.2353-1.506,1.4266-2.2508,3.8404-3.5931,6.4648-3.5931.9913,0,1.9735.1942,2.8886.5625.1708.0272.3407.0601.509.0996,3.5206.8184,5.9797,3.8531,5.9797,7.3799,0,2.4315-1.1764,4.1082-1.6784,4.8242-.4506.6411-1.0184,1.3213-1.7385,2.0837-.5917.6263-1.2752,1.2941-2.0891,2.0422-.0012.0012-.0029.0025-.0041.0037v5.9204c0,.2901.0033.5728.0115.8481.0025.1099.0049.1876.0082.2502.0243.2407.0362.4823.0362.7242v.0839c0,4.2905-3.312,7.6511-7.5404,7.6511ZM261.0644,142.3608l.0654.016-.0654-.016ZM264.225,142.1353s-.0004.0004-.0008.0004t.0008-.0004ZM264.2328,142.1324c-.0021.0008-.0037.0016-.0058.0021.0021-.0004.0037-.0012.0058-.0021ZM253.5693,134.5656c-.0021.0004-.0037.0004-.0058.0008.0021-.0004.0037-.0004.0058-.0008ZM253.5742,134.5648c-.0008,0-.0012,0-.0021.0004.0008-.0004.0012-.0004.0021-.0004ZM270.58,134.0735c.0021.0193.0045.0383.0062.0576-.0021-.021-.0041-.0399-.0062-.0576ZM272.5164,121.5068s-.0004.0008-.0008.0012c.0004-.0004.0004-.0008.0008-.0012ZM272.5234,121.4961c-.0021.0029-.0041.0062-.0062.0095.0021-.0033.0041-.0066.0062-.0095Z"/><path class="cls-5" d="M274.4117,142.0723c-2.5286,0-4.858-1.1949-6.3911-3.2779-1.362-1.8422-1.65-3.654-1.65-4.8473,0-3.1585,1.9274-5.9245,4.7823-7.008,1.0694-.4353,1.6521-.8501,1.955-1.125.4366-.3958.7547-.8007.9732-1.2382.2975-.5946.502-1.2447.6246-1.9858.0333-.2029.0638-.4086.0909-.6172-.0346.0012-.0662.0029-.0955.0049-.2164.0193-.4337.0292-.651.0292h-.0556c-4.1272,0-7.4849-3.3454-7.4849-7.4569,0-.237.0111-.4629.0309-.6769-.0206-.2296-.0309-.4584-.0309-.6868,0-4.0963,3.3577-7.4289,7.4849-7.4289h.0556c.2461,0,.4921.0123.737.0374.086.007.2576.0148.4823.0239.3856.0173.7937.0292,1.2456.0362.5851.0115,1.176.0259,1.8019.0457.5543.0173,1.0867.03,1.5941.0391.486.0082.9184.0123,1.2916.0123h9.0999c.1786,0,.4876-.0045.9262-.0123.4345-.0082.9201-.0247,1.4505-.0494l1.7706-.0831c.5703-.0272,1.0275-.0498,1.3719-.0679.1267-.0066.2535-.0099.3806-.0099h.0556c4.2284,0,7.5408,3.3491,7.5408,7.6239,0,.3238-.0099.6279-.0276.9151-.0004.7695-.1103,1.4875-.2749,2.3302-.1815.9213-.4749,1.8887-.8991,2.9651-.3876.9818-.8942,2.0212-1.5077,3.0956-.7254,1.2682-1.6336,2.4886-2.7022,3.6301-1.0756,1.1476-2.3533,2.2109-3.8,3.1631-1.5348,1.0073-3.2869,1.8113-5.2168,2.3957-.6489,1.1974-1.4365,2.3352-2.352,3.3947-1.2147,1.4052-2.6948,2.6792-4.402,3.7898-1.7208,1.1184-3.7433,2.0282-6.0134,2.7067-.0082.0025-.016.0049-.0243.0074-.702.216-1.4274.3251-2.1669.3251ZM274.5314,142.0439h-.0078.0078ZM274.5388,142.0439h-.0037.0037ZM274.5458,142.0439h-.0016.0016ZM278.043,141.1177s-.0004,0-.0008.0004c.0004,0,.0004-.0004.0008-.0004ZM278.0492,141.114l-.0008.0008s.0004-.0004.0008-.0008ZM275.4935,140.7728c-.0021.0004-.0041.0012-.0062.0016.0021-.0004.0041-.0008.0062-.0016ZM275.4992,140.7716c-.0012,0-.0021.0004-.0033.0008.0012-.0004.0021-.0008.0033-.0008Z"/><path class="cls-4" d="M145.0082,141.0008h-.056c-1.8681,0-3.5437-.9715-4.5971-2.6652-.6296-1.0048-.9534-2.0837-.9534-3.1919,0-1.7418.8666-3.3491,2.3179-4.2988.2638-.1724.5432-.3193.8349-.4386,2.3253-.9509,4.1506-2.1265,5.4357-3.4992-.1012.0029-.2008.0062-.2987.0095-.6999.0226-.916.0395-.9382.0416-.1362.0111-.2728.0169-.4094.0169h-.1111c-2.8783,0-5.1332-2.2426-5.1332-5.1057,0-.2284.0152-.4432.0407-.6431-.0272-.2218-.0407-.444-.0407-.6645,0-1.1842.3856-2.2623,1.0415-3.1194-.9727-.923-1.5702-2.229-1.5702-3.6984,0-.1839.0095-.3683.0288-.5514-.0379-.2576-.0568-.5201-.0568-.7847,0-2.847,2.2549-5.0773,5.1332-5.0773h.1111c.251,0,.502.0189.7501.0572-.0066.0029.1601.0193.7143.0461.5152.0243,1.0875.0411,1.6945.0498l1.9619.028c.6119.0091,1.0834.0132,1.4192.0132h10.3521c.3712,0,.8616-.0041,1.4719-.0132.6209-.0086,1.253-.0222,1.8978-.0403.6275-.0173,1.2024-.0387,1.7258-.065.4279-.0214.7197-.0374.8756-.0518.1527-.0144.3325-.0239.4855-.0239h.0556c2.8783,0,5.1328,2.2426,5.1328,5.1053,0,.2148-.0132.4296-.0399.6456.0247.1975.0399.4094.0399.6345,0,1.4332-.5621,2.7117-1.4838,3.6342.7053.8777,1.1225,2.001,1.1225,3.2396,0,.2214-.0148.4304-.0391.6255.0243.1955.0391.4045.0391.6263,0,2.8787-2.2669,5.1337-5.1612,5.1337h-.0556c-.144,0-.2876-.0062-.4308-.0189,1.1312.7201,2.3845,1.262,3.7873,1.6402,2.2928.5571,3.9194,2.6092,3.9194,5.0168,0,1.7542-.8806,3.3919-2.3553,4.3806-.2148.1436-.4403.2703-.6744.379-.2123.0983-.4131.2074-.5983.3251-.9954,1.2192-2.4648,1.9134-4.0654,1.9134-1.0781,0-1.9311-.3329-2.7816-.704-.7143-.3135-1.4883-.7473-2.3775-1.3311-.8263-.5432-1.7105-1.2172-2.6302-2.0043-.9295-.795-1.8492-1.736-2.7339-2.7977-.2884.3148-.5884.6218-.8987.9209-2.7376,2.6339-6.2122,4.6695-10.3282,6.0496-.5061.1699-1.0365.2564-1.5702.2564ZM170.1017,138.2616c.0008,0,.0021.0004.0033.0004-.0012,0-.0021-.0004-.0033-.0004ZM172.8685,138.0085c-.0004.0012-.0012.0021-.0016.0033.0004-.0012.0012-.0021.0016-.0033ZM173.6602,122.3528l-.0049.016.0049-.016ZM173.74,114.9087c-.0008.0016-.0016.0029-.0021.0045.0004-.0016.0012-.0029.0021-.0045ZM173.7421,114.9046l-.0012.0025.0012-.0025ZM173.7421,111.2741s.0004.0008.0004.0008c0,0,0-.0004-.0004-.0008ZM173.7379,111.2654l.0025.0049-.0025-.0049Z"/><path class="cls-4" d="M183.3563,141.0839c-1.153,0-2.3426-.1551-3.5363-.4613-1.1497-.2934-2.1377-.6674-3.0071-1.1394-.1597-.0807-.3131-.1691-.4613-.265-.1584.0712-.3123.1366-.4625.1963l-.7761.321c-.5983.2473-1.2394.3744-1.8866.3744-1.6912,0-3.2775-.8205-4.3518-2.2508-.9896-1.3139-1.1982-2.596-1.1982-3.4392,0-1.8262.9489-3.4713,2.4985-4.3732.2045-.1243.4037-.251.5975-.3802-.1588-.1831-.3041-.3777-.4349-.5827-.8304-.4074-1.5632-1.0378-2.1344-1.8558-.8942-1.2731-1.0834-2.5133-1.0834-3.3272,0-1.948,1.0929-3.6918,2.7837-4.5428.1177-.0642.2341-.1288.3493-.1946-1.2834-.9201-2.1035-2.4179-2.1035-4.1399,0-.2074.0119-.416.0362-.6255-.0239-.2094-.0362-.4189-.0362-.6271,0-2.8627,2.2549-5.1049,5.1332-5.1049h.0831c.1292,0,.2584.0049.3872.0152.2136.0169.56.0362,1.0382.0609.5.0251,1.0415.042,1.6031.0494l1.9953.028c.0165,0,.0329.0004.0494.0008.7555-2.1187,2.6857-3.5215,4.8896-3.5215.7213,0,1.3065.1481,1.8249.3337h.4016c2.2216,0,4.0757,1.3073,4.8283,3.2001h.2362c.4642,0,1.0168-.0045,1.6587-.0132.6419-.0091,1.2818-.0222,1.9183-.0403.6423-.0181,1.2246-.0362,1.743-.0551.2819-.0095.4749-.0177.6024-.0239.2601-.0411.5226-.0621.7847-.0621,2.7997,0,5.0773,2.2903,5.0773,5.1057,0,.251-.0177.5012-.0523.7485.0156.1588.0247.3259.0247.5032,0,.9785-.2605,1.8846-.7172,2.6549,1.2402.9715,1.9969,2.4516,1.9969,4.0799,0,1.8883-1.0184,3.589-2.6166,4.4954.0008.0321.0008.0646.0008.0967,0,.9987-.2745,1.9216-.7538,2.7006,1.2036,1.1661,1.8113,2.5006,1.8113,3.9778,0,1.6809-.7839,3.2096-2.1274,4.2041-.9127,1.8048-2.6409,2.9051-4.6197,2.9051-1.6826,0-3.2367-.8226-4.2642-2.2566-.0243-.0337-.0481-.0679-.0716-.1025-.1127-.1658-.2321-.3329-.3584-.5008-.1704.2996-.3642.5905-.5818.8719-.7115.9172-1.6525,1.6521-2.8026,2.1899-1.1065.5189-2.3887.7719-3.9157.7719ZM174.8646,138.7331c-.0021.0008-.0037.0016-.0053.0025.0016-.0008.0033-.0016.0053-.0025ZM174.8695,138.7307c-.0012.0004-.0021.0008-.0029.0012.0012-.0004.0016-.0008.0029-.0012ZM174.8736,138.7282l-.0004.0004.0004-.0004ZM192.5386,131.3022c-.1259.3238-.216.6637-.2675,1.0135.3-.2066.5477-.4329.7357-.6547.0572-.0675.1469-.1811.2485-.3387-.0942-.0029-.1901-.0058-.2876-.0086-.142-.0041-.2852-.0078-.4292-.0115ZM200.7645,126.752c-.0107.0337-.0218.0679-.0333.1016.0119-.0342.0226-.0683.0333-.1016ZM201.0299,125.9056c-.0004.0008-.0008.0016-.0016.0025.0008-.0008.0012-.0016.0016-.0025ZM202.0726,113.1726c.0004.0012.0008.0025.0008.0033,0-.0008-.0004-.0021-.0008-.0033ZM202.0706,113.1665c.0004.0016.0008.0033.0016.0049-.0008-.0016-.0012-.0033-.0016-.0049ZM197.2114,108.6661c-.1189,0-.2374.0045-.3559.0136.1177-.0082.2444-.0136.3559-.0136ZM185.7648,105.8799c.0012.0004.0021.0008.0029.0012-.0008-.0004-.0021-.0008-.0029-.0012ZM184.9694,105.6277h0Z"/><path class="cls-4" d="M202.6137,139.5256c-1.5645,0-2.6652-.6152-3.3133-1.1312-.0123-.0103-.0251-.0202-.0374-.0304-.7069-.5744-1.8932-1.8797-1.8932-4.1667,0-.3103.0045-.6822.0148-1.1168l.0272-1.1912c.0091-.4144.0136-.8016.0136-1.1838v-13.3584c0-.3872-.0049-.802-.0132-1.2414l-.028-1.3669c-.0095-.472-.023-.6917-.0288-.7645-.0091-.123-.0136-.2465-.0136-.3699v-.0831c0-2.9252,2.2911-5.2168,5.2164-5.2168h.2786s.0695-.0008.2214-.0198c.0313-.0037.0543-.007.0704-.0095.4888-.1461,1.0015-.2214,1.5171-.2214,2.8783,0,5.1328,2.2915,5.1328,5.2168v.1383c0,.1284-.0049.2568-.0148.3843-.0041.0502-.0173.2535-.0276.7703-.0095.4633-.0189.9402-.0276,1.4361-.0091.4777-.0132.9098-.0132,1.306v7.6116c.6197-.3333,1.2233-.7078,1.806-1.1209,1.1266-.7983,2.173-1.7587,3.112-2.8557.8921-1.0431,1.6496-2.2529,2.2508-3.5947.0802-.179.1712-.3535.272-.5218.953-1.5883,2.6508-2.5368,4.5407-2.5368,1.0229,0,2.0315.2617,2.9972.7785,1.8657,1.0057,2.9705,2.7977,2.9705,4.8004,0,.6703-.1325,1.3246-.3847,1.9294-.9612,2.4833-2.1879,4.7016-3.647,6.5948-1.4233,1.8447-2.9824,3.4507-4.6358,4.7761-1.634,1.3089-3.3322,2.3985-5.0485,3.2396-1.6064.7872-3.1507,1.42-4.5893,1.8813-1.4793.4753-2.7849.7942-3.9893.9748-1.2122.1819-2.057.2633-2.7364.2633ZM226.0345,123.5441c-.0016.0012-.0033.0025-.0045.0041.0012-.0016.0029-.0029.0045-.0041ZM226.0394,123.5391c-.0016.0012-.0029.0029-.0041.0041l.0041-.0041ZM226.0444,123.5346l-.0037.0037.0037-.0037ZM226.0485,123.5309c-.0008.0008-.0016.0016-.0025.0021.0008-.0008.0016-.0012.0025-.0021ZM226.0534,123.5264h-.0004.0004ZM227.6171,119.9572v.0004-.0004ZM227.6171,119.9531v.0008-.0008ZM219.0459,116.5781c-.1391.1522-.2679.3127-.3856.479.1181-.1671.2469-.3271.3856-.479h0Z"/><path class="cls-4" d="M227.5208,140.054h-.0835c-1.9311,0-3.6955-1.0061-4.7205-2.6915-.6073-1.0011-.9135-2.0549-.9135-3.1367,0-2.1442,1.269-4.0408,3.2326-4.8316.1724-.0691.3481-.1288.5267-.1782,1.3764-.381,2.4882-.8431,3.3046-1.3727.6971-.4526,1.2501-.9555,1.6439-1.4949l-1.8735.0276c-.609.0091-1.1744.0226-1.6945.0395-.651.0222-.8682.0387-.9053.0416-.1362.0111-.2728.0169-.4094.0169h-.0556c-2.894,0-5.1608-2.2549-5.1608-5.1332,0-.1778.0091-.3559.0267-.5333-.0362-.2543-.0547-.5139-.0547-.7748,0-1.9977,1.1102-3.6918,2.7668-4.5251-.0625-.3267-.0951-.6654-.0951-1.0131,0-.1794.0078-.3563.0235-.5308-.0342-.2502-.0514-.5008-.0514-.7489,0-2.8631,2.2545-5.1057,5.1328-5.1057h.0835c.1395,0,.2786.0058.4177.0177.1897.016.5164.0346.9818.0576.5226.0272,1.0781.049,1.676.0662.6185.0177,1.2242.0317,1.8216.0399.6004.0099,1.0694.014,1.42.014h5.6217c.3691,0,.8522-.0041,1.4501-.014.6193-.0082,1.2349-.0222,1.8599-.0399.6078-.0173,1.1604-.0387,1.6616-.0654.4172-.021.6958-.0366.8477-.051.1572-.0152.3403-.0251.4979-.0251h.0556c2.8783,0,5.1332,2.2426,5.1332,5.1057,0,.2107-.0123.423-.0374.6366.0235.1922.0374.3979.0374.616,0,.3856-.0399.7596-.116,1.1188,1.5776.8699,2.6487,2.5495,2.6487,4.4745,0,.216-.0132.4321-.0403.6493.0267.221.0403.4407.0403.6588,0,2.8627-2.2549,5.1053-5.1332,5.1053h-.0556c-.1691,0-.3382-.0086-.5069-.0259-.1469-.0115-.3946-.021-.7427-.0325-.523-.0169-1.1065-.0304-1.7422-.0395l-1.9624-.028c-.0638-.0008-.1267-.0016-.1876-.0025-.1016.4419-.2173.8756-.3465,1.3007-.6374,2.0986-1.6657,4.0037-3.0561,5.662-1.3447,1.6031-3.0491,2.9902-5.0662,4.1239-1.9171,1.0756-4.2111,1.9171-6.8203,2.5022-.3547.0798-.7172.1197-1.081.1197ZM253.9305,121.8171l-.0185.0556c.0066-.0185.0123-.037.0185-.0556ZM253.6413,118.8758s.0004.0004.0004.0004l-.0004-.0004ZM253.6384,118.8696s.0004.0012.0008.0016c-.0004-.0004-.0008-.0012-.0008-.0016ZM253.6343,118.8618l.0025.0049-.0025-.0049Z"/><path class="cls-4" d="M263.086,140.3042c-.2913,0-.5547-.0243-.7979-.0617-.286.0411-.5777.0617-.8723.0617-2.9252,0-5.2164-2.3278-5.2164-5.2999v-.1111c0-.1782.0095-.3563.0288-.5333.0062-.0728.0103-.1946.0148-.3481l.0276-1.0143c.0025-.1012.0045-.202.0066-.3029-.5485.1753-1.0341.3135-1.4706.4185-.8946.2156-1.4295.3181-2.0455.3181-1.9582,0-3.7177-1.0213-4.7065-2.7318-.5308-.9102-.8164-1.9484-.8164-2.9861,0-2.4059,1.569-4.4629,3.7955-5.0678,1.3542-.4028,2.6331-.9176,3.8025-1.5311,1.2484-.6559,2.3829-1.3608,3.368-2.094.9649-.718,1.8011-1.4472,2.4841-2.166.6592-.6946,1.1694-1.3229,1.5151-1.8661.9781-1.5608,2.6672-2.5096,4.5-2.5096.7781,0,1.5484.1712,2.2541.4938.063.0095.1255.0189.188.0276.144.0202.2876.0469.4296.0798,2.501.5818,4.1815,2.638,4.1815,5.1168,0,1.6974-.8489,2.9079-1.2571,3.4898-.3843.5469-.8826,1.1419-1.525,1.822-.5539.586-1.1991,1.2168-1.9726,1.9274-.2415.2218-.4938.4436-.7555.6645v6.9705c0,.3131.0041.618.0123.9151.0045.1716.0082.2938.0156.3843.021.1852.028.3366.028.523v.0839c0,2.9874-2.2911,5.3271-5.2164,5.3271ZM261.6224,140.105c.0103.0025.0206.0049.0313.0074-.0107-.0025-.021-.0049-.0313-.0074ZM263.4115,139.9585l-.0037.0012.0037-.0012ZM253.1771,132.2749c-.0012.0004-.0025.0004-.0037.0008.0012-.0004.0025-.0004.0037-.0008ZM253.1804,132.2745h-.0016.0016ZM270.554,120.2617c-.0132.021-.0267.0424-.0403.0634.0136-.021.0272-.042.0403-.0634Z"/><path class="cls-4" d="M274.4117,139.7483c-1.7817,0-3.4289-.8497-4.5193-2.3315-.7929-1.0719-1.1978-2.2422-1.1978-3.4696,0-2.187,1.3295-4.0996,3.2976-4.8407,1.1312-.4567,2.0315-.9855,2.6771-1.5715.6534-.5925,1.1402-1.22,1.49-1.9196.3975-.7946.6798-1.685.839-2.6458.1769-1.0723.2753-2.2134.2926-3.3956-.2638.0062-.5197.014-.7682.023-.5543.0193-1.0423.0333-1.4673.0432-.2415.0058-.423.0111-.5436.0214-.1555.0148-.3053.0214-.4617.0214h-.0556c-2.894,0-5.1608-2.2545-5.1608-5.1328,0-.2391.0169-.4633.0444-.6711-.0296-.2321-.0444-.4633-.0444-.6925,0-2.8627,2.2669-5.1049,5.1608-5.1049h.0556c.1675,0,.3345.0082.5012.0255.1288.0123.337.0218.6218.0337.3987.0177.8291.0304,1.3056.0379.567.0111,1.1484.0251,1.764.0449.567.0177,1.1102.0304,1.6274.0399.5024.0082.9481.0128,1.3324.0128h9.0999c.1868,0,.5098-.0045.9682-.0128.4559-.0086.9629-.0259,1.5163-.0514l1.7739-.0835c.5748-.0272,1.0357-.0498,1.3826-.0683.086-.0045.1724-.0066.2588-.0066h.0556c2.9252,0,5.2168,2.3278,5.2168,5.2999,0,.2736-.0082.5308-.023.7736-.0041.0662-.0049.1053-.0049.1444,0,.5024-.0646,1.0299-.2313,1.8809-.1535.7798-.4082,1.6155-.7802,2.5594-.3469.8777-.8049,1.8167-1.3637,2.7952-.6353,1.1106-1.4357,2.1846-2.3808,3.1943-.9497,1.0135-2.0866,1.9582-3.3812,2.81-1.383.9077-2.9804,1.6315-4.7534,2.1549-.2531.0749-.5111.1288-.7719.1621-.6394,1.3863-1.4879,2.696-2.5244,3.8959-1.0711,1.239-2.3862,2.3689-3.9107,3.3606-1.5336.9966-3.3536,1.8134-5.4114,2.4282-.0132.0037-.0263.0078-.0399.0115-.4814.1485-.9793.2234-1.4859.2234ZM274.529,139.7199h-.0053.0053ZM274.5339,139.7199h-.0025.0025ZM274.5384,139.7199h-.0004.0004ZM276.8987,139.0948h0ZM276.9032,139.0923s-.0004.0004-.0008.0004c.0004,0,.0004-.0004.0008-.0004ZM274.9339,138.5175c-.0012.0004-.0029.0008-.0041.0008.0012,0,.0029-.0004.0041-.0008ZM274.9384,138.5163c-.0012.0004-.0021.0004-.0029.0008.0008-.0004.0016-.0004.0029-.0008Z"/><path class="cls-8" d="M168.7461,122.0368c-.1856-.0187-.5474-.0374-1.0854-.0561s-1.1317-.0323-1.7809-.0416c-.6497-.0093-1.285-.0187-1.9062-.028-.6221-.0093-1.1181-.0136-1.4888-.0136h-4.0353c1.0573,2.9682,2.662,5.4311,4.8145,7.3887,2.1516,1.9576,4.7029,3.3249,7.6528,4.1045.1113.0187.1669.0926.1669.2225,0,.1113-.0556.2038-.1669.2786-.5198.2403-1.0017.5147-1.4472.8204-.445.3066-.7423.5894-.8905.8493-.0556.0739-.1393.1113-.2505.1113-.093,0-.3618-.0977-.8068-.2922-.4454-.1953-.9928-.5062-1.6421-.9325-.6497-.4272-1.3593-.969-2.1291-1.6281-.7699-.6582-1.5304-1.4472-2.282-2.3652-.7512-.9189-1.4425-1.9805-2.0731-3.1865-.631-1.206-1.141-2.5606-1.5304-4.0629-.7053,3.1542-2.1665,5.798-4.3831,7.9314-2.2175,2.1334-5.0421,3.775-8.4741,4.9258h-.0556c-.1299,0-.2645-.1113-.4034-.3346-.1393-.2225-.2089-.417-.2089-.5843,0-.0739.028-.1299.0837-.1665,3.3576-1.3733,5.9504-3.1678,7.7781-5.3852,1.8272-2.2166,2.964-4.7814,3.409-7.6944h-2.9219c-.3342,0-.8072.0042-1.4191.0136-.6123.0093-1.248.0187-1.9066.028s-1.2709.0229-1.8366.0416c-.566.0187-.9601.0374-1.1826.0561h-.1113c-.1304,0-.1949-.0561-.1949-.1673,0-.0374.0183-.1113.0556-.2225.0369-.1486.0556-.2879.0556-.4178,0-.1478-.0187-.2777-.0556-.3898-.0374-.1113-.0556-.2038-.0556-.2777,0-.1113.0645-.1673.1949-.1673h.0832c.2408.0374.6446.0696,1.2106.0977.5656.028,1.1733.0467,1.823.0552.6488.0102,1.2892.0187,1.9202.028.6302.0093,1.1219.0144,1.4748.0144h3.0056c.0739-.8722.1202-1.758.1393-2.6582.0183-.8994.0276-1.7487.0276-2.5461v-1.6145h-5.0927c-.631,0-1.2803.0102-1.9482.028-.6675.0187-1.2939.0331-1.8782.0416-.5843.0102-.9881.0331-1.2106.0696h-.0556c-.1486,0-.2225-.0552-.2225-.1665,0-.0739.0183-.1486.0556-.2225.0369-.1486.0556-.2879.0556-.4178,0-.1486-.0187-.2786-.0556-.3898-.0187-.0552-.0374-.1062-.0556-.1529-.0187-.0459-.028-.0977-.028-.1529,0-.0926.065-.1393.1949-.1393h.1113c.2408.0374.6493.0696,1.2247.0977.5745.0272,1.1966.0459,1.8642.0552.668.0093,1.3219.0187,1.9622.028.6399.0093,1.1359.0136,1.4888.0136h10.3522c.3898,0,.9045-.0042,1.5448-.0136.6399-.0093,1.2939-.0229,1.9618-.0416s1.2799-.0416,1.8366-.0696.9274-.051,1.1134-.0696h.0556c.1295,0,.1945.0552.1945.1673,0,.0552-.0187.1384-.0556.2497-.0187.0374-.0276.0883-.0276.1537v.4866c0,.0747.0089.1299.0276.1673.0369.1113.0556.1851.0556.2225,0,.1299-.0743.1945-.2225.1945h-.0556c-.1856-.0178-.552-.0365-1.0994-.0552s-1.1546-.0323-1.8225-.0416-1.3219-.0187-1.9618-.028c-.6404-.0093-1.1368-.0144-1.4892-.0144h-4.2578c-.0187,1.0582-.0374,2.1894-.0556,3.3954-.0187,1.206-.0743,2.3474-.1669,3.4234h4.2022c.3707,0,.8718-.0051,1.5028-.0144.6306-.0093,1.2705-.0229,1.9202-.0416.6493-.0178,1.2429-.0416,1.7809-.0696s.9087-.051,1.1134-.0696h.0556c.1295,0,.1949.0654.1949.1953,0,.0374-.0191.1113-.0561.2225-.0374.1113-.0556.2599-.0556.445,0,.1299.0183.2505.0556.3618.0369.1113.0561.186.0561.2225,0,.1299-.0747.1953-.2229.1953h-.0556Z"/><path class="cls-8" d="M190.8981,121.7022c-.1856-.0178-.4361-.0365-.7516-.0552s-.6633-.0323-1.0433-.0416c-.3805-.0093-.775-.0187-1.183-.028s-.7979-.0144-1.1686-.0144h-2.8943c-.7792,0-1.5355.0144-2.268.0425-.7329.0272-1.3219.0603-1.7673.0968h-.0832c-.1299,0-.1949-.0459-.1949-.1393,0-.0739.0183-.1665.0556-.2777.0369-.1113.0556-.2319.0556-.3618s-.0187-.2505-.0556-.3618c-.0187-.0561-.0374-.1113-.0556-.1673-.0187-.0552-.0276-.1019-.0276-.1393-.8348.7796-1.6608,1.4429-2.4769,1.9898-.8166.5478-1.5495,1.0072-2.1983,1.3775-.7609.4272-1.4939.7796-2.1988,1.0573-.1299,0-.2599-.0926-.3894-.2777-.1299-.1851-.1949-.3524-.1949-.5011,0-.0739.0276-.1206.0837-.1393,2.0034-1.076,3.7657-2.3516,5.2872-3.826,1.521-1.4752,2.7831-3.1126,3.7848-4.9122h-1.2242c-.4641,0-1.0255.0051-1.6837.0136-.659.0102-1.313.0187-1.9622.028s-1.2476.0238-1.7949.0416c-.5474.0187-.9321.0467-1.1546.0841h-.0837c-.1486,0-.2225-.0561-.2225-.1673,0-.0739.0183-.1673.0556-.2786.0369-.1113.0556-.2319.0556-.3618,0-.1113-.0187-.2225-.0556-.3338-.0374-.1113-.0556-.2038-.0556-.2786,0-.1113.0645-.1665.1949-.1665h.0832c.2408.0187.6306.0416,1.169.0696.5376.0272,1.1359.0467,1.7949.0552.6582.0102,1.3219.0187,1.9898.028.6675.0093,1.2425.0136,1.7253.0136h1.809c.2595-.5376.4913-1.0752.6956-1.6136.2038-.5376.38-1.0854.5287-1.6416.0556-.186.1393-.2786.2505-.2786.0369,0,.1482.0374.3338.1113.3155.1486.8072.2225,1.4752.2225h.4174c.1669,0,.2505.0561.2505.1673s-.0556.3015-.1669.5699c-.1117.2692-.2369.5571-.3758.8629-.1393.3066-.2832.6081-.4314.9045-.1486.2972-.2692.5291-.3618.6956h6.15c.4824,0,1.0578-.0042,1.7257-.0136s1.3308-.0229,1.9898-.0416c.6582-.0187,1.2523-.0374,1.7809-.0561.5287-.0178.8947-.0365,1.099-.0552.0183,0,.0374-.0042.0561-.0144.0183-.0085.0369-.0136.0556-.0136.0926,0,.1389.0561.1389.1673,0,.0926-.0276.1851-.0832.2777-.0187.0561-.028.1766-.028.3618,0,.1673.0093.2786.028.3346.0369.1486.0556.2412.0556.2777,0,.1299-.0654.1953-.1949.1953h-.0556c-.1669-.0187-.5147-.0374-1.0438-.0561-.5287-.0178-1.1227-.0365-1.7809-.0552-.6586-.0187-1.3266-.0323-2.0039-.0425-.6773-.0085-1.2476-.0136-1.7113-.0136h-2.5045c1.2799,1.5771,2.778,2.9079,4.4944,3.9933,1.716,1.0854,3.6498,1.8973,5.8022,2.4349.1851.0561.2781.1486.2781.2786,0,.1113-.0556.186-.1669.2225-.445.2412-.8208.4875-1.127.738-.3062.2497-.5333.5053-.682.7652-.093.1486-.1856.2225-.2781.2225-.4828-.1673-1.0115-.4077-1.5864-.7236-.4824-.2599-1.048-.6123-1.6973-1.0573-.6497-.4459-1.3266-.9928-2.0315-1.6425,0,.0747-.0187.1673-.0556.2786-.0378.1113-.0561.2319-.0561.3618,0,.1486.0183.2786.0561.3898.0369.1113.0556.1945.0556.2505,0,.1113-.0654.1665-.1949.1665h-.0556ZM181.4639,129.0773c-.8905,1.1134-1.8183,2.0595-2.7826,2.8383-.9652.7796-1.851,1.4106-2.6578,1.8922-.8072.4824-1.4705.8255-1.9898,1.0302l-.8072.3338c-.1299,0-.2641-.0934-.4034-.2786s-.2085-.3431-.2085-.473c0-.0552.0183-.0926.0556-.1113,1.4472-.8714,2.6943-1.8455,3.7427-2.9215,1.048-1.076,1.8688-2.1801,2.4629-3.3122.0369-.0739.0739-.1435.1113-.2089.0369-.0645.0837-.0968.1393-.0968.0739,0,.1575.0374.2505.1113.1851.1486.4544.2922.8068.4314s.7049.2183,1.0578.2361c.2225.0187.3338.1028.3338.2505,0,.0747-.0374.1673-.1113.2786ZM195.8515,126.4887c-.1856-.0178-.5287-.0365-1.0297-.0552-.5006-.0187-1.0714-.0374-1.7113-.0561-.6399-.0178-1.299-.0323-1.9758-.0416-.6777-.0093-1.2943-.0136-1.8506-.0136h-2.6994v3.8956c0,.631.0042,1.1694.0136,1.6145s.0323.9087.0696,1.3911v.2225c0,.2047-.0276.4595-.0832.766-.0556.3057-.1949.6021-.4174.89-.2229.2879-.5525.5333-.9881.7372-.4361.2047-1.0433.3066-1.8225.3066-.7423,0-1.5126-.1019-2.31-.3066-.7979-.2038-1.4565-.4544-1.9758-.7508-.0556-.0187-.0837-.0934-.0837-.2225,0-.1673.0463-.3533.1393-.5571.0926-.2038.1949-.3057.3062-.3057h.028c.4077.1478.8765.2684,1.4051.3618.5287.0926,1.0157.1393,1.4612.1393.7049,0,1.2149-.1308,1.5304-.3898.3155-.2599.473-.7796.473-1.5584v-6.2337h-3.0056c-.5193,0-1.113.0042-1.7809.0136s-1.3176.0238-1.9478.0416c-.631.0187-1.2017.0374-1.7117.0561-.5104.0187-.8765.0374-1.0994.0552h-.0832c-.1486,0-.2225-.0552-.2225-.1665,0-.0561.0183-.1393.0556-.2505.0369-.1486.0556-.2879.0556-.4178,0-.1113-.0187-.2225-.0556-.3338-.0374-.1113-.0556-.1945-.0556-.2505,0-.1113.0645-.1665.1945-.1665h.0837c.2408.0187.6166.0416,1.127.0696.51.0272,1.0807.051,1.7117.0688.6302.0187,1.2799.0331,1.9478.0425s1.2705.0136,1.809.0136h7.9033c.5567,0,1.1779-.0042,1.8646-.0136.6862-.0093,1.3499-.028,1.9898-.0561s1.2106-.0552,1.7113-.0832c.5011-.028.8531-.051,1.0578-.0696h.0556c.1113,0,.1669.0552.1669.1665,0,.0561-.0187.1393-.0556.2505-.0187.0561-.028.186-.028.3898,0,.186.0093.3066.028.3618.0369.1113.0556.2047.0556.2786,0,.1113-.0654.1665-.1949.1665h-.0556ZM190.9813,120.1166c-1.5584-1.5032-2.8383-3.2009-3.8404-5.0931h-3.3669c-.5754.9461-1.1966,1.8412-1.8646,2.6854-.668.8442-1.4102,1.6467-2.2264,2.4077h.1113c.4824.0552,1.0854.1019,1.809.1384.7236.0374,1.4748.0561,2.254.0561h2.8663c.3711,0,.7605-.0042,1.169-.0136.4077-.0093.8021-.0238,1.1826-.0425.38-.0178.7329-.0416,1.0578-.0696.324-.0272.5885-.0501.7928-.0688h.0556ZM195.3508,135.1717c-.0747,0-.158-.0654-.2505-.1945-.7053-1.0395-1.5771-2.0782-2.6162-3.1168-1.0391-1.0395-2.189-1.9941-3.4506-2.8663-.0187-.0187-.028-.0467-.028-.0841,0-.1113.079-.259.2365-.445.1575-.1851.2828-.2786.3758-.2786.0926,0,.3384.1028.7376.3066.3987.2038.8765.4637,1.4331.7788.5567.3159,1.1499.659,1.7809,1.0302.6306.3711,1.2106.7372,1.7393,1.099s.9694.6862,1.3219.9741.5287.4968.5287.6259c0,.1113-.065.2047-.1945.2786-.2229.1486-.4641.3618-.7236.6395-.2603.2786-.473.603-.6404.9741-.0743.1851-.1575.2786-.2501.2786Z"/><path class="cls-8" d="M202.3637,118.2516v-.9045c0-.417-.0051-.8629-.014-1.3359-.0098-.473-.0187-.9317-.028-1.3775-.0093-.445-.0234-.7881-.0416-1.0293v-.0832c0-.186.0926-.2786.2781-.2786h.2786c.2408,0,.5147-.0187.8208-.0561.3062-.0365.589-.0926.8488-.1665.0369-.0187.0837-.028.1393-.028.1295,0,.1945.0926.1945.2786v.1384c-.0187.242-.0323.5945-.0416,1.0582-.0093.4637-.0187.9461-.0276,1.4472-.0098.5002-.014.9648-.014,1.3911v14.3875c1.6697-.2599,3.3207-.71,4.9534-1.3495,1.6323-.6404,3.1818-1.4794,4.6476-2.5189,1.4654-1.0387,2.8009-2.2633,4.0073-3.6731,1.2055-1.4098,2.2077-3.0056,3.0056-4.7865.0556-.0926.1571-.1393.3062-.1393.2038,0,.4263.0654.6675.1945.2412.1299.3618.2786.3618.4459,0,.0187-.0047.0323-.0136.0416-.0098.0093-.014.0229-.014.0416-.7979,2.0782-1.7907,3.8871-2.9776,5.4269-1.1877,1.5397-2.4586,2.8519-3.8128,3.9372-1.3546,1.0854-2.7321,1.972-4.1326,2.6582-1.4009.6862-2.7088,1.2238-3.9241,1.6136s-2.2867.6539-3.2141.7932c-.9278.1393-1.5958.2089-2.0039.2089-.1113,0-.1902-.0187-.2365-.0561s-.0692-.1486-.0692-.3338c0-.2786.0042-.6123.0136-1.0021.0093-.389.0183-.7975.028-1.2238.0089-.4272.014-.8493.014-1.2663v-12.4537Z"/><path class="cls-8" d="M249.0326,121.5357c-.1669-.0187-.5287-.0374-1.0854-.0561-.5567-.0178-1.169-.0323-1.8366-.0416-.668-.0093-1.3219-.0187-1.9622-.028-.6399-.0093-1.1363-.0136-1.4888-.0136h-3.1444c-.0191,1.7436-.2505,3.3487-.696,4.8145-.445,1.4658-1.1503,2.7737-2.1151,3.9236-.9648,1.1508-2.1983,2.1478-3.7011,2.992-1.5028.8433-3.3304,1.5066-5.4821,1.989h-.0837c-.2043,0-.3716-.1062-.5011-.3193-.1299-.214-.1949-.4034-.1949-.5707,0-.1299.0463-.2132.1393-.2505,1.8739-.5189,3.4323-1.183,4.6753-1.9898,1.2429-.8068,2.2446-1.7436,3.0056-2.8102.7605-1.0667,1.3032-2.2548,1.6281-3.5627.3244-1.3079.5053-2.7134.5427-4.2158h-4.7865c-.3529,0-.8446.0042-1.4752.0136-.631.0093-1.2663.0187-1.9062.028s-1.234.0238-1.7809.0416c-.5474.0187-.9325.0374-1.155.0561h-.0556c-.1486,0-.2225-.0654-.2225-.1953,0-.0739.0183-.1478.0556-.2225.0369-.1478.0556-.2786.0556-.3898,0-.1478-.0187-.2777-.0556-.389-.0187-.0374-.0374-.0841-.0556-.1393-.0187-.0561-.028-.1113-.028-.1673,0-.0926.065-.1393.1949-.1393h.0837c.2225.0187.6119.0425,1.1686.0696.5567.028,1.1593.0518,1.809.0696.6493.0187,1.2892.0331,1.9202.0416.6306.0102,1.1312.0144,1.5028.0144h10.6308c.3894,0,.9087-.0042,1.5584-.0144.6488-.0085,1.2981-.0229,1.9478-.0416.6493-.0178,1.2523-.0416,1.809-.0696.5567-.0272.9274-.051,1.113-.0696h.0556c.1117,0,.1673.0561.1673.1673,0,.0561-.0187.1393-.0556.2505-.0187.0552-.028.186-.028.3898v.2225c0,.0739.0093.1299.028.1665.0369.1113.0556.2047.0556.2786,0,.1113-.0654.1673-.1949.1673h-.0556ZM246.4724,114.7178c-.1673-.0187-.5244-.0374-1.0718-.0561s-1.1457-.0374-1.7949-.0561c-.6497-.0178-1.2896-.0314-1.9202-.0416-.6306-.0085-1.1227-.0136-1.4748-.0136h-5.705c-.3711,0-.8629.0051-1.4748.0136-.6123.0102-1.234.0238-1.8646.0416-.631.0187-1.2153.0374-1.7533.0561-.5384.0187-.9185.0374-1.141.0561h-.0556c-.1486,0-.2225-.0747-.2225-.2234,0-.0926.0089-.1571.0276-.1945.0369-.1486.0556-.2871.0556-.4178,0-.1478-.0187-.2777-.0556-.389-.0374-.1113-.0556-.2038-.0556-.2786,0-.1113.065-.1673.1949-.1673h.0832c.2229.0187.6077.0425,1.155.0696.5469.028,1.141.0518,1.7809.0696.6404.0187,1.2709.0331,1.8926.0416.6212.0102,1.1176.0144,1.4888.0144h5.6213c.3898,0,.8998-.0042,1.5308-.0144.6306-.0085,1.2705-.0229,1.9202-.0416.6493-.0178,1.2425-.0416,1.7809-.0696.538-.0272.8998-.051,1.0854-.0696h.0556c.1295,0,.1949.0561.1949.1673,0,.0747-.0187.1673-.0556.2786-.0187.0374-.028.0926-.028.1665v.2225c0,.186.0093.3066.028.3618.0369.1121.0556.186.0556.2234,0,.1665-.0837.2505-.2505.2505h-.0276Z"/><path class="cls-8" d="M263.3641,134.9772c0,.259-.093.389-.2781.389-.0374,0-.1304-.0187-.2786-.0552-.1486-.0374-.3062-.0561-.473-.0561-.2968,0-.5198.028-.668.0841-.0743.0178-.1575.0272-.2505.0272-.1856,0-.2781-.1206-.2781-.3618v-.1113c.0183-.1665.0323-.4127.0416-.7372s.0183-.6675.028-1.0293c.0089-.3618.014-.7142.014-1.0582v-6.9989c-1.0395.631-2.0501,1.1644-3.0336,1.6-.9835.4365-1.8599.789-2.6298,1.0582-.7699.2684-1.4051.4637-1.9062.5843s-.7979.1809-.8905.1809c-.186,0-.3295-.0883-.4314-.265-.1023-.1758-.1533-.3474-.1533-.5147,0-.1851.0561-.2871.1673-.3057,1.7066-.5011,3.302-1.1414,4.7865-1.9202,1.4841-.7796,2.8247-1.6145,4.0213-2.5045,1.1966-.8909,2.2353-1.7996,3.1168-2.7279.8807-.9274,1.5813-1.7988,2.1011-2.6158.0926-.1478.2038-.2225.3338-.2225.1113,0,.2132.0374.3062.1113.1482.1113.3618.1902.6399.2369.2786.0459.5474.0883.8072.1248.2408.0561.3618.158.3618.3066,0,.0926-.121.3108-.3618.6539-.2412.3431-.5983.7652-1.0714,1.2663-.473.5002-1.0484,1.0616-1.7253,1.6833-.6777.6217-1.4612,1.2476-2.3516,1.8786v9.3921c0,.3618.0042.7142.014,1.0573.0089.3431.0229.5987.0416.7652v.0841Z"/><path class="cls-8" d="M284.9314,118.2516c0,.9835-.0327,2.0034-.0972,3.0616-.0654,1.0573-.2136,2.1198-.4454,3.1856-.2323,1.0675-.5754,2.1113-1.0297,3.1313-.4548,1.0208-1.0671,1.9754-1.8366,2.8663-.7703.8909-1.7253,1.707-2.8663,2.4493-1.141.7414-2.5185,1.3537-4.1326,1.8361-.0191,0-.0378.0042-.0561.0144-.0187.0085-.0374.0136-.0556.0136-.2043,0-.3851-.107-.5427-.3202s-.2365-.3941-.2365-.5427c0-.1299.0369-.2038.1117-.2225,1.7253-.6862,3.1398-1.5304,4.2438-2.5325,1.1036-1.0013,1.9661-2.124,2.5882-3.3674.6212-1.2425,1.0527-2.592,1.2939-4.0485.2408-1.4565.3618-2.9826.3618-4.5784v-.8629c0-.3151.1113-.473.3338-.473h.2505c.2043,0,.4544-.0272.7516-.0832.2964-.0561.5656-.1299.8068-.2225.1113-.0561.2132-.0832.3062-.0832.1669,0,.2505.1384.2505.417v.3618ZM287.1021,124.9303c-.1486,0-.2832-.1062-.4034-.3193-.121-.2132-.1809-.4043-.1809-.5707,0-.1299.0369-.2038.1113-.2225.9461-.4459,1.8179-.9928,2.6158-1.6425.7975-.6488,1.493-1.3724,2.0871-2.1707.5936-.7975,1.076-1.6595,1.4472-2.5877.3711-.9274.6026-1.8922.696-2.8943l-11.438.028c-.1856,0-.4871.0051-.9045.0136-.4174.0102-.8905.0187-1.4191.028s-1.09.0187-1.6837.028c-.5941.0093-1.155.0229-1.6837.0416s-.9975.0323-1.4051.0416c-.4085.0093-.7053.0238-.8909.0416h-.0556c-.1486,0-.2225-.0645-.2225-.1945,0-.0374.0183-.1113.0556-.2225.0369-.1486.0556-.2786.0556-.3898,0-.1673-.0187-.3244-.0556-.473-.0374-.1113-.0556-.2038-.0556-.2786,0-.1113.0739-.1665.2225-.1665h.0556c.1856.0187.4917.0374.9185.0552.4268.0187.9045.0331,1.4331.0416.5287.0102,1.0896.0238,1.6837.0425.5936.0187,1.1593.0323,1.6977.0416.538.0093,1.0111.0136,1.4191.0136h9.1c.2043,0,.5567-.0042,1.0578-.0136.5006-.0093,1.0527-.028,1.6557-.0561.6026-.028,1.1966-.0552,1.7814-.0832.5843-.028,1.0527-.051,1.4051-.0696h.0556c.1851,0,.2786.1206.2786.3618,0,.1673-.0051.3244-.014.473-.0098.1486-.014.2972-.014.445,0,.1486-.0467.4595-.1393.9325-.093.473-.2692,1.0395-.5287,1.6977-.2599.6582-.6123,1.3775-1.0573,2.1563-.4454.7796-1.0115,1.5355-1.6977,2.2684-.6866.7329-1.5168,1.4191-2.4905,2.0595-.9741.6395-2.1198,1.155-3.437,1.544h-.0556Z"/></svg>